<?xml version="1.0" encoding="UTF-8" standalone="no"?>
<!DOCTYPE svg  PUBLIC '-//W3C//DTD SVG 1.1//EN'  'http://www.w3.org/Graphics/SVG/1.1/DTD/svg11.dtd'>
<svg version="1.1" xmlns="http://www.w3.org/2000/svg">
<defs>
<font id="Garamond" horiz-adv-x="0">
<font-face font-family="Garamond Regular" slope="23853" ascent="800" units-per-em="1000" font-weight="500" font-style="italic" unicode-range="U+0020-00FE" cap-height="668" underline-position="-155" bbox="-85 -225 1043 736" descent="-200" x-height="418" underline-thickness="50" panose-1="0 0 0 0 0 0 0 0 0 0"/>
<missing-glyph/>
<glyph glyph-name="exclam" horiz-adv-x="278" unicode=" "/>
<glyph glyph-name="exclam" horiz-adv-x="278" unicode=" "/>
<glyph glyph-name="quotedbl" horiz-adv-x="232" unicode="!" d="M172 46q0 -13 -4.5 -23t-12.5 -18q-8 -7 -18 -11t-21 -4q-12 0 -22 4t-18 11q-8 8 -12 17.5t-4 21.5q0 11 4 21t12 18t18 12.5t22 4.5q11 0 21 -4.5t18 -12.5t12.5 -18t4.5 -21v2v0zM129 193h-27l-17 171q-1 14 -2.5 29t-3.5 31l-2 32l-2 32q-1 15 -2.5 30.5t-1.5 31.5 q-1 16 -1 31.5v31.5v2v2v1.5v1.5v0.5v1.5q1 10 4 19t8 17t13.5 12.5t20.5 4.5q11 0 19.5 -4.5t13.5 -12.5t8 -17t4 -19v-1.5v-0.5v-1.5v-1.5v-2v-2v-16v-15q-1 -8 -1 -16v-16q-1 -16 -1.5 -31.5t-1.5 -30.5q-1 -8 -1.5 -16t-0.5 -16q-1 -8 -1.5 -16t-1.5 -16 q-1 -16 -2.5 -31.5t-3.5 -30.5l-17 -169v0v0z"/>
<glyph glyph-name="numbersign" horiz-adv-x="333" unicode='&quot;' d="M109 399h-35l-21 269h78l-22 -269v0v0zM260 399h-35l-21 269h77l-21 -269v0v0z"/>
<glyph glyph-name="dollar" horiz-adv-x="567" unicode="#" d="M371 250l-36 -250h-37l34 250h-112l-35 -250h-39l34 250h-140v38h145l15 106h-136v39h141l33 235h40l-32 -235h111l34 235h37l-32 -235h131v-39h-136l-15 -106h129v-38h-134v0v0zM352 394h-111l-15 -106h111l15 106v0v0z"/>
<glyph glyph-name="percent" horiz-adv-x="467" unicode="$" d="M206 736h32v-59q0 -2 0.5 -2h1.5h0.5t1.5 1h0.5h1.5h0.5h1.5q5 0 12 -0.5t16 -2.5q9 -1 18 -2.5t19 -3.5q14 -4 27.5 -9.5t25.5 -11.5q12 -7 18 -15t6 -17q0 -5 -2 -9.5t-7 -9.5q-4 -4 -8.5 -7.5t-9.5 -5.5q-1 0 -2 -0.5l-1 -0.5q-1 -1 -2 -1h-2q-1 -1 -2.5 -1h-3.5 q-3 0 -6.5 2.5t-8.5 6.5q-4 5 -10 10.5t-13 11.5q-7 5 -14.5 10.5t-16.5 9.5q-9 5 -19.5 7.5t-21.5 2.5v-250q2 -3 4.5 -4.5t5.5 -3.5l2 -2t3 -1q1 -1 2.5 -2t2.5 -2q27 -17 52.5 -37t47.5 -43q23 -22 34.5 -51.5t11.5 -64.5q0 -38 -12 -69.5t-36 -56.5t-53.5 -40t-64.5 -22 v-65h-32v64q-18 1 -35.5 2.5t-34.5 4.5q-17 2 -33.5 7.5t-32.5 15.5q-1 0 -2 0.5t-1 1.5q-1 0 -2 0.5t-2 1.5t-2 1.5t-1 1.5q-1 0 -2 0.5t-2 1.5q-5 4 -9.5 8.5t-9.5 8.5q-4 5 -6 10.5t-2 11.5q0 5 2 9t6 8t8.5 7t8.5 5q1 0 2 0.5t2 1.5l1 0.5t2 0.5h2t2 1h1h2l2 2 q4 -2 8.5 -5t9.5 -9t12 -12.5t14 -13.5q8 -7 17.5 -14t20.5 -13t24.5 -9t29.5 -3v278q-29 16 -54.5 35t-48.5 40q-22 21 -34 50t-14 66q0 34 10 64t31 55q21 26 48.5 41t61.5 20v63v0v0zM238 31q19 4 35.5 15t29.5 27q14 17 20.5 35t6.5 39q0 23 -7.5 42.5t-21.5 35.5 t-30 29.5t-33 24.5v-248v0v0zM206 637q-19 -7 -33.5 -17.5t-25.5 -25.5t-16.5 -32t-5.5 -37t6 -36.5t18 -29.5t25.5 -24.5t28.5 -22.5v0h1v-1v0v0h1q0 -1 0.5 -1h0.5v227v0v0z"/>
<glyph glyph-name="ampersand" horiz-adv-x="792" unicode="%" d="M758 205q0 -10 -0.5 -18.5t-1.5 -16.5q-1 -9 -1.5 -17.5t-2.5 -16.5q-5 -28 -15.5 -53t-25.5 -48q-15 -22 -38 -33t-54 -11t-54 11t-38 33q-16 23 -26.5 48t-15.5 53q-1 8 -2.5 16.5t-2.5 17.5q-1 8 -1 16.5v16.5v16t1 17q1 8 2.5 17t2.5 18q5 27 15.5 52t26.5 47 q15 23 38 34.5t54 11.5q30 0 53 -11.5t39 -34.5q15 -22 25.5 -47t15.5 -52q2 -9 2.5 -18t1.5 -17q1 -9 1.5 -17t0.5 -16v2v0zM688 206v5.5v8.5q-1 4 -1 9v11q-1 12 -1.5 24.5t-2.5 25.5q-3 18 -8 35t-13 32q-7 15 -18 23t-25 8q-15 0 -25.5 -8t-18.5 -23q-7 -15 -12 -32 t-7 -35q-2 -13 -3.5 -25.5t-1.5 -24.5v-21v-15v-16v-21t1.5 -24t3.5 -25q2 -19 7 -36t12 -32q8 -15 18.5 -22.5t25.5 -7.5q14 0 25 7.5t18 22.5q8 15 13 32t8 36q2 13 2.5 25t1.5 24v11.5t1 9.5v9v7v2v0zM496 635h42l-48 -123l-195 -512h-42l48 123l195 512v0v0zM311 429 v-9.5t-1 -8.5q0 -5 -0.5 -9t-0.5 -9q0 -4 -0.5 -8.5t-1.5 -8.5q0 -5 -0.5 -9t-1.5 -9q-6 -27 -16.5 -52t-25.5 -48q-15 -22 -38 -33.5t-53 -11.5t-53 11.5t-38 33.5q-16 23 -26 48t-15 52q-1 5 -2 9t-2 9q0 4 -1 8.5t-1 8.5q-1 9 -1 17.5v16.5v16t1 17q0 5 0.5 9t1.5 9 q1 4 1.5 8.5t1.5 8.5q5 27 15.5 52.5t25.5 48.5t38 34.5t54 11.5q30 0 53 -11.5t39 -34.5q15 -23 25.5 -48.5t15.5 -52.5q1 -4 1.5 -8.5t0.5 -8.5q1 -5 1.5 -9t0.5 -9q1 -9 1.5 -17t0.5 -16v2v0zM241 430v6v8q-1 5 -1 10v11q-1 12 -1.5 24.5t-2.5 25.5q-3 18 -8 35t-13 32 q-7 15 -18 23t-25 8q-15 0 -25.5 -8t-18.5 -23q-7 -15 -12 -32t-7 -35q-2 -13 -3.5 -25.5t-1.5 -24.5v-21.5v-15.5v-16v-21t1.5 -24t3.5 -25q2 -19 7 -36t12 -32q8 -15 18.5 -22.5t25.5 -7.5q14 0 25 7.5t18 22.5q8 15 13 32t8 36q2 13 2.5 25t1.5 24v11.5t1 9.5v9v7v2v0z "/>
<glyph glyph-name="quotesingle" horiz-adv-x="669" unicode="&amp;" d="M426 342v30q7 -2 13.5 -3t13.5 -1q6 -1 13 -1.5t14 -0.5q6 -1 12.5 -1h13.5h13.5h13.5h25.5t24.5 1t24.5 2t25.5 2v-28q-22 -3 -40.5 -10t-32.5 -18q-15 -12 -28.5 -25.5t-25.5 -28.5q-2 -3 -4 -5.5t-4 -4.5q-2 -3 -4 -5.5t-4 -4.5q-4 -5 -8 -10.5t-8 -10.5l-8 -10 l-8 -10q-4 -6 -8 -11l-8 -10t-8 -10.5t-8 -10.5q5 -4 9.5 -10t9.5 -12q2 -3 4.5 -6t5.5 -6q3 -4 6 -7l6 -6q9 -12 19.5 -22.5t21.5 -19.5t22 -13.5t23 -4.5q8 0 15.5 1.5t14.5 5.5q8 4 14.5 8.5t13.5 8.5q2 1 3.5 2t2.5 2t2 1.5t2 1.5l1 0.5t2 1.5l18 -18q-1 -4 -2.5 -6 t-3.5 -4l-2 -2l-1 -1l-2 -2l-2 -2q-10 -12 -21.5 -22.5t-24.5 -19.5q-13 -8 -27.5 -13t-29.5 -5q-19 0 -35.5 6t-30.5 16q-14 12 -27 25t-24 27q-4 5 -8.5 10.5t-8.5 10.5t-8 10.5t-8 9.5l-2 -2t-1 -2q-1 -2 -2 -3l-2 -2q-2 -2 -3.5 -4t-3.5 -4q-16 -19 -35 -36t-39 -32 q-21 -15 -44 -22.5t-49 -7.5q-34 0 -63 11t-52 33q-24 23 -35.5 52t-11.5 63q0 29 9.5 54t28.5 44q20 20 41 37t45 31q2 1 4 2.5t4 2.5q1 1 2 1.5l3 1.5q1 0 2 0.5t2 1.5q-11 11 -21.5 24t-19.5 27q-10 14 -14.5 30t-4.5 32q0 26 10 46t29 36q20 15 41.5 23t45.5 8v0h1v0v0 h0.5h1.5q20 -1 39 -8t36 -21t26 -32.5t9 -41.5q0 -20 -7 -37.5t-21 -31.5q-13 -15 -28 -27t-32 -21l4 -4l4 -4q2 -3 4 -5l4 -4q5 -4 9.5 -8t8.5 -8l2 -2l2 -2l2 -2l2 -2q13 -12 25.5 -24.5l25.5 -25.5q12 -13 23.5 -26.5t21.5 -28.5q3 5 7.5 9.5t8.5 9.5q5 5 9.5 11t8.5 12 l8 10l8 10t7.5 10.5t7.5 11.5q2 3 3 6t3 6l2.5 5t2.5 6q2 5 3.5 10.5t2.5 11.5q0 7 -3 12t-8 8q-6 3 -12 4.5t-12 2.5h-3.5t-3.5 1h-2.5h-3.5h-6h-5v2v0zM198 300q-1 -2 -2.5 -3.5t-3.5 -2.5q-1 -1 -2 -1.5t-2 -1.5q-16 -10 -30 -22.5t-27 -26.5q-13 -15 -19 -32t-6 -37 q0 -24 7.5 -44.5t23.5 -37.5q15 -17 35 -25.5t45 -8.5q20 0 39 5.5t37 16.5t33.5 23.5t28.5 26.5q-19 22 -38 43.5t-39 42.5q-19 21 -39.5 42t-40.5 41v2v0zM241 356q12 7 22 16.5t18 20.5t12.5 24t4.5 29v0v1v0v0v0.5v1.5q-1 13 -4.5 25t-11.5 23q-7 11 -18.5 16.5 t-26.5 5.5q-13 0 -23.5 -4.5t-18.5 -13.5q-9 -9 -13 -19.5t-4 -23.5q0 -15 4 -28t12 -24q8 -12 17 -22t19 -19l1.5 -1.5l1.5 -1.5q0 -1 0.5 -1.5l1.5 -1.5l1.5 -1.5t1.5 -0.5l1.5 -1.5l1.5 -1.5v2v0z"/>
<glyph glyph-name="parenleft" horiz-adv-x="218" unicode="&apos;" d="M165 46q0 -13 -4.5 -23t-12.5 -18q-8 -7 -18 -11t-21 -4q-12 0 -22 4t-18 11q-8 8 -12 17.5t-4 21.5q0 11 4 21t12 18t18 12.5t22 4.5q11 0 21 -4.5t18 -12.5t12.5 -18t4.5 -21v2v0z"/>
<glyph glyph-name="parenright" horiz-adv-x="286" unicode="(" d="M253 714l19 -21q-40 -49 -69.5 -102.5t-46.5 -112.5q-18 -59 -26.5 -119t-8.5 -122v-20.5t1 -21.5v-10.5t1 -10.5q0 -6 0.5 -11.5t1.5 -10.5q4 -49 14 -96.5t26 -93.5q16 -47 40 -89t57 -79l-20 -19q-46 46 -82.5 99.5t-64.5 115.5q-28 60 -41.5 123t-13.5 128q0 14 1 28 t2 29q1 8 2 15t2 15q1 7 2.5 14.5t3.5 14.5q11 50 29 99t45 96q26 47 57.5 87t68.5 73v2v0z"/>
<glyph glyph-name="asterisk" horiz-adv-x="286" unicode=")" d="M33 -225l-20 21q41 47 70 100t46 110q17 59 26 119.5t9 121.5v8v9q-1 4 -1 8.5v8.5v8v9q-1 4 -1 8.5v8.5q-4 51 -13.5 101t-25.5 99q-16 50 -41 94t-58 84l20 21q45 -47 81.5 -101t64.5 -116q27 -61 41 -125t14 -129v-10.5t-1 -10.5q0 -6 -0.5 -11.5t-0.5 -10.5 q-1 -10 -2 -20.5t-3 -21.5q-9 -55 -26.5 -107t-44.5 -103t-60.5 -94t-73.5 -79v0v0z"/>
<glyph glyph-name="plus" horiz-adv-x="417" unicode="*" d="M201 517l10 5q3 -5 6 -8.5t7 -8.5q3 -4 6.5 -8.5t7.5 -9.5q2 -4 4.5 -7.5t5.5 -6.5q2 -4 4.5 -7.5t4.5 -6.5q5 -7 8 -13.5t6 -12.5q3 -7 4.5 -13t1.5 -11q0 -7 -3 -12t-8 -10q-5 -4 -11 -6t-12 -2q-7 0 -12.5 2.5t-8.5 6.5q-4 5 -6 10.5t-4 11.5v1.5v1.5q-1 0 -1 0.5v1.5 q-1 2 -1 3.5v2.5q-2 11 -3.5 22.5t-2.5 23.5l-2 24t-1 24v2v0zM169 532l7 -9q-3 -5 -6 -10.5t-7 -11.5l-4 -6l-4 -6q-2 -4 -4.5 -7t-4.5 -6l-8 -10l-8 -10q-2 -3 -4 -5t-4 -5q-3 -2 -5 -3.5t-4 -3.5q-4 -4 -8 -7t-8 -5t-8 -3t-7 -1q-7 0 -12 2.5t-10 6.5q-4 5 -6.5 10.5 t-2.5 11.5q0 9 4.5 17t14.5 15t21 13t23 11q4 2 8 3.5t8 2.5q3 2 7 3.5t8 2.5q8 2 14 4.5t10 3.5v2v0zM225 541v11q3 0 6.5 1.5t7.5 2.5q4 2 8 3.5t8 2.5l6 2t7 2q2 1 3.5 1.5t3.5 1.5q1 0 3 0.5t4 1.5q4 1 7.5 2t7.5 2q3 1 6.5 2t7.5 2q8 2 14 2.5t12 0.5q7 0 13 -2.5 t10 -7.5q5 -4 7.5 -10t2.5 -13t-3 -13t-9 -11q-6 -4 -12 -6t-13 -2q-5 0 -11 0.5t-14 1.5q-4 1 -7.5 1.5t-6.5 1.5q-4 1 -7.5 1.5t-7.5 1.5q-3 0 -6 0.5t-6 1.5l-6 2l-6 2l-8 2l-8 2t-7.5 2t-6.5 2v2v0zM176 568l-7 -10q-4 -1 -10.5 0.5t-14.5 3.5q-7 2 -15.5 5t-16.5 6 q-13 5 -24 10t-22 11q-10 6 -15 13.5t-5 15.5q0 6 2.5 11.5t6.5 10.5q5 5 10 7.5t11 2.5q4 0 8 -1t8 -3t8 -5l8 -6l4 -4t5 -4l4 -4l4 -4t4 -4.5t5 -4.5q2 -2 4 -4.5t4 -4.5q5 -6 9.5 -12t8.5 -11q5 -5 8.5 -9.5t7.5 -7.5v2v0zM209 573l-13 2v74v3.5v5.5v6t1 6q0 8 2 15t6 14 q3 6 9.5 9.5t16.5 3.5q6 0 12 -2t10 -6q5 -4 7.5 -9.5t2.5 -12.5q0 -6 -1.5 -12t-3.5 -12q-2 -7 -5 -13.5t-7 -13.5q-1 -1 -2 -3t-1 -3q-1 -2 -2 -3.5t-2 -3.5q-2 -4 -4 -7l-4 -6q-3 -5 -6 -9.5t-6 -9.5q-3 -4 -5.5 -8t-4.5 -7v2v0z"/>
<glyph glyph-name="comma" horiz-adv-x="501" unicode="+" d="M22 363h205v194h44v-194h206v-43h-206v-193h-44v193h-205v43v0v0z"/>
<glyph glyph-name="hyphen" horiz-adv-x="218" unicode="," d="M26 -142l3 29q17 1 33 5.5t31 13.5t22.5 23.5t7.5 34.5q0 8 -2.5 13.5t-7.5 7.5q-5 3 -11 5l-12 4h-1.5h-0.5q-1 1 -1.5 1h-0.5h-1.5h-0.5q-1 1 -1.5 1h-0.5q-7 2 -14.5 5t-13.5 7q-7 5 -10 14.5t-3 23.5q0 12 4.5 22t13.5 17q9 8 19 11.5t22 3.5q17 0 29.5 -6.5 t21.5 -18.5q9 -13 14.5 -26.5t8.5 -27.5v-4t1 -3v-3.5v-3.5v-2.5t1 -3.5v-2v-2q0 -34 -11 -59.5t-32 -43.5t-48 -27t-59 -9v0v0z"/>
<glyph glyph-name="period" horiz-adv-x="215" unicode="-" d="M0 252h215v-65h-215v65v0v0z"/>
<glyph glyph-name="slash" horiz-adv-x="218" unicode="." d="M165 46q0 -13 -4.5 -23t-12.5 -18q-8 -7 -18 -11t-21 -4q-12 0 -22 4t-18 11q-8 8 -12 17.5t-4 21.5q0 11 4 21t12 18t18 12.5t22 4.5q11 0 21 -4.5t18 -12.5t12.5 -18t4.5 -21v2v0z"/>
<glyph glyph-name="zero" horiz-adv-x="416" unicode="/" d="M356 714l41 -19l-183 -409l-227 -511l-42 19l183 408l228 512v0v0z"/>
<glyph glyph-name="one" horiz-adv-x="467" unicode="0" d="M433 311q0 -14 -0.5 -28t-2.5 -28q-1 -15 -3 -29.5t-5 -28.5q-8 -39 -23 -74.5t-37 -67.5t-54.5 -47.5t-74.5 -15.5q-44 0 -77 16t-54 49q-22 33 -36 70t-22 77q-3 15 -4.5 30t-3.5 30q-1 15 -1.5 29.5t-0.5 27.5q0 12 0.5 25.5t1.5 28.5q2 14 4 29t5 30q8 39 22 75 t36 69t55 49.5t76 16.5t75 -17t54 -50q21 -33 36 -69.5t23 -76.5q3 -16 5 -32t3 -32q2 -16 2.5 -30t0.5 -28v2v0zM346 305v8v11.5v13.5q-1 8 -1 16v17q-1 18 -2.5 37t-3.5 38q-4 31 -12 59.5t-19 54.5q-12 26 -30 39t-43 13q-24 0 -41.5 -12t-29.5 -36t-20.5 -49.5 t-13.5 -54.5q-4 -19 -6 -38t-3 -37t-1.5 -32t-0.5 -25v-26t1 -35q0 -19 2 -39.5t5 -41.5q5 -31 12.5 -58.5t19.5 -53.5q11 -25 29.5 -38t43.5 -13t43 11.5t30 35.5t20.5 50.5t12.5 54.5q2 18 3.5 36t2.5 36q1 17 1.5 31.5t0.5 24.5v2v0z"/>
<glyph glyph-name="two" horiz-adv-x="467" unicode="1" d="M267 659l20 -13q-2 -29 -3.5 -56t-1.5 -54v-27v-27v-27.5v-27.5v-264v-27q0 -31 3 -51.5t9 -31.5q6 -10 25 -16t50 -7v-30h-31.5t-32.5 1q-16 1 -32 1.5t-32 0.5h-8h-8q-4 -1 -8 -1h-8h-16h-16q-8 -1 -16 -1.5t-16 -0.5h-16h-16v32q2 -2 3.5 -2h2.5h1.5t1.5 1h0.5h1.5 q27 3 44.5 9t24.5 14t10.5 27.5t3.5 50.5v31v413q-2 -2 -4 -3.5t-4 -2.5q-3 -1 -5 -2l-4 -2l-4 -2t-4 -1q-3 -1 -5 -2l-4 -2q-3 -1 -6 -2.5t-6 -3.5q-4 -1 -7 -2.5t-6 -3.5q-3 -1 -6 -2.5t-6 -2.5q-4 -2 -7 -3l-6 -2l-16 32q20 8 40.5 18.5t40.5 21.5t40 23t39 25v2v0z"/>
<glyph glyph-name="three" horiz-adv-x="467" unicode="2" d="M80 490l-27 16q13 25 32 49t44 46q25 21 53.5 32t59.5 11q34 0 61.5 -11.5t48.5 -34.5q21 -22 31.5 -50.5t10.5 -62.5v-6t-1 -6q0 -4 -0.5 -7t-0.5 -6q-1 -3 -1.5 -6t-0.5 -6q-1 -3 -1.5 -6t-1.5 -6q-7 -24 -18 -48t-27 -47t-33 -45t-35 -42q-9 -10 -17.5 -19t-16.5 -18 t-15.5 -17t-14.5 -16l-110 -117q2 -2 3.5 -2h2.5h3.5h3.5q2 -1 3.5 -1h2.5h2h2h1h2l101 2q2 -2 4.5 -2h5.5h6h6q2 -1 4.5 -1h5.5h6h6q20 0 39.5 3t38.5 9q18 6 32 19.5t24 33.5l27 -6l-56 -122h-20.5h-21.5h-20.5h-20.5h-10.5h-10.5h-10.5h-10.5h-20.5h-21.5h-16h-16h-16 h-16h-31.5h-30.5h-16h-16h-8h-7h-8h-8l-12 24q12 11 26.5 26t30.5 32t32.5 36t32.5 38q15 17 29.5 35t28.5 37t27.5 38t25.5 38q7 11 13 22.5t12 23.5q6 11 11.5 22.5t9.5 22.5q9 23 13.5 44t4.5 41q0 22 -7.5 40t-22.5 33q-15 14 -33 21.5t-39 7.5q-22 0 -40 -7.5 t-33 -22.5t-27.5 -31t-22.5 -33v2v0z"/>
<glyph glyph-name="four" horiz-adv-x="467" unicode="3" d="M97 524l-26 20q14 20 31.5 37.5t36.5 32.5q20 15 43.5 22.5t51.5 7.5t51.5 -10t42.5 -30q20 -20 29.5 -44t9.5 -52q0 -30 -9 -53t-27 -40q-18 -16 -39 -30t-45 -25q35 -2 62.5 -14t48.5 -33q21 -22 31.5 -50.5t10.5 -63.5q0 -46 -16.5 -83.5t-49.5 -66.5t-71 -43t-82 -14 q-6 0 -12 0.5t-14 1.5q-4 0 -8 0.5t-7 1.5q-4 1 -8 1.5t-8 1.5q-15 1 -28 6.5t-25 12.5q-12 8 -18 19t-6 25q0 7 2.5 13t8.5 11t12 8t13 4v0h1v0v0h0.5h1.5q5 0 9.5 -1.5t8.5 -3.5q2 -1 4 -3t5 -3q2 -2 4 -3.5t4 -3.5t4 -4.5t4 -4.5l4 -4t5 -4q6 -7 13.5 -13.5t15.5 -11.5 q8 -6 18 -8.5t22 -2.5q23 0 40.5 8.5t30.5 25.5q12 17 21 36t13 40q0 3 0.5 6t1.5 7q0 3 0.5 6t0.5 6t0.5 6t0.5 7q1 3 1 6v6q0 35 -10.5 62t-31.5 46q-21 18 -48.5 27.5t-61.5 9.5l-21 2v30q29 1 55 10t48 24q23 15 34.5 39t11.5 57q0 20 -6.5 37.5t-19.5 31.5t-29.5 21.5 t-36.5 7.5q-18 0 -33.5 -5t-27.5 -16q-12 -10 -23 -22.5t-20 -26.5v2v0z"/>
<glyph glyph-name="five" horiz-adv-x="467" unicode="4" d="M276 633l79 30v-416h70v-58h-70v-189h-73v189h-259l6 62l247 382v0v0zM282 247v331l-212 -331h212v0v0z"/>
<glyph glyph-name="six" horiz-adv-x="467" unicode="5" d="M139 638h249l-17 -70h-206l-26 -139q6 -1 12 -0.5t12 1.5h6t6 1h6h6q44 0 81.5 -12.5t67.5 -36.5q30 -25 45.5 -61t15.5 -83q0 -51 -16.5 -94.5t-48.5 -79.5q-32 -37 -74 -54.5t-95 -17.5h-5.5h-5.5q-3 1 -6 1h-6t-6 0.5t-6 0.5q-4 1 -7 1.5t-6 0.5q-13 2 -25 5.5 t-23 10.5q-10 6 -16 16t-6 23q0 8 3 15t9 13t13 9t15 3q6 0 11.5 -1.5t10.5 -4.5l10 -6t10 -7q2 -1 3.5 -2.5t2.5 -3.5l1.5 -1.5t1.5 -0.5q1 -1 2 -1.5t2 -1.5q6 -6 13.5 -11t14.5 -10q8 -4 17 -6.5t19 -2.5q24 0 43.5 9t35.5 28q15 19 25.5 40t16.5 43q1 5 1.5 10.5 t1.5 11.5q1 5 1.5 10.5t0.5 10.5q0 38 -11 68t-32 52q-21 21 -51 32t-68 11h-8.5t-8.5 -1q-5 0 -9 -0.5t-9 -1.5q-4 -1 -8.5 -2t-8.5 -1q-5 -1 -9 -2l-8 -2l-8 10l48 281v0v0z"/>
<glyph glyph-name="seven" horiz-adv-x="467" unicode="6" d="M367 667l13 -23q-52 -31 -93 -66.5t-70 -76.5q-28 -41 -48.5 -90.5t-31.5 -108.5q14 13 29 24.5t31 21.5q15 10 33 15t38 5q35 0 62 -13.5t47 -39.5t31 -54.5t14 -60.5v-2v-1v-2v-2v-2.5v-3.5q0 -41 -13.5 -75.5t-40.5 -63.5q-27 -28 -61.5 -42t-75.5 -14q-46 0 -80 16 t-55 49t-33 70t-14 77v4.5v4.5v4.5v5.5q0 71 24 137t72 127t103.5 105.5t118.5 72.5v2v0zM132 262q-1 -7 -1.5 -12t-0.5 -10q0 -2 -0.5 -4.5t-0.5 -4.5v-5.5v-4.5v-15.5t1 -16.5q0 -8 1.5 -16t2.5 -16q3 -24 10.5 -45t19.5 -41q12 -19 31 -29.5t44 -12.5q26 0 46.5 10 t33.5 29q14 20 20.5 42t6.5 47v4.5v4.5q-1 2 -1 4.5v4.5q-1 5 -1.5 10t-0.5 10q-4 23 -13.5 43t-23.5 39q-13 18 -32.5 27.5t-44.5 9.5q-15 0 -28.5 -4t-25.5 -12q-13 -8 -23.5 -17.5t-19.5 -20.5v2v0z"/>
<glyph glyph-name="eight" horiz-adv-x="467" unicode="7" d="M70 638h362l7 -13l-46 -113l-208 -512h-73q4 7 8 15.5t8 17.5q4 8 8.5 16.5t8.5 17.5q1 3 2.5 6t2.5 6q2 2 3.5 5t2.5 6q2 3 3 6t3 6l2.5 5t2.5 6l203 459h-126l-55 -1q-22 -2 -40.5 -5.5t-32.5 -9.5q-15 -6 -26.5 -19.5t-19.5 -35.5l-29 2l29 135v0v0z"/>
<glyph glyph-name="nine" horiz-adv-x="467" unicode="8" d="M284 344q25 -17 47.5 -36t43.5 -42q20 -22 30.5 -49t10.5 -59q0 -38 -14 -68.5t-41 -53.5q-28 -22 -60 -33t-68 -11q-35 0 -66.5 9.5t-59.5 30.5t-42 50.5t-14 67.5q0 31 10 56.5t31 46.5q20 20 43.5 37.5t48.5 30.5q-1 1 -2.5 2t-3.5 2q-1 1 -2.5 2t-3.5 2 q-21 14 -39.5 30t-33.5 33t-22.5 40.5t-7.5 52.5q0 35 12 63.5t36 50.5q24 23 53 34t63 11q33 0 61.5 -9t52.5 -27t36 -45t12 -62q0 -28 -8 -52t-24 -44q-16 -19 -35.5 -35t-43.5 -28v2v0zM212 302q-19 -13 -34.5 -28t-27.5 -33t-17.5 -38t-5.5 -43v-2v-2v-2v-2 q2 -25 10 -47t24 -42t37 -30t46 -10q22 0 40 7t33 22q14 14 21.5 32t7.5 40q0 27 -9 50t-26 42t-36 36t-40 32l-6 4l-6 4q-1 1 -2.5 2t-2.5 2q-2 1 -3 2t-3 2v2v0zM258 364q14 8 26.5 20.5t22.5 27.5t15 32t5 36q0 25 -6.5 47t-19.5 41q-13 20 -33 29.5t-47 9.5 q-19 0 -35.5 -6.5t-30.5 -18.5q-15 -12 -22 -27.5t-7 -35.5q0 -22 7.5 -41.5t22.5 -35.5t31 -30t34 -26q2 -1 4.5 -2.5t5.5 -3.5q2 -1 4.5 -2.5t4.5 -3.5q5 -3 9.5 -6t8.5 -6v2v0z"/>
<glyph glyph-name="colon" horiz-adv-x="467" unicode="9" d="M104 -17l-16 30q49 26 88.5 59t70.5 70q30 38 51 85t31 103q-13 -13 -27 -24.5t-30 -21.5t-33 -15t-36 -5q-34 0 -62.5 13t-51.5 40q-22 27 -33 57t-11 63q0 43 13 79.5t38 66.5q26 30 60.5 45.5t79.5 15.5t78.5 -17t55.5 -51q23 -34 35 -71t13 -78v-2.5v-3.5v-1.5v-0.5 v-1.5v-1.5q0 -73 -24 -137.5t-72 -121.5t-102 -101t-116 -73v0v0zM334 374v1t1 2v2.5v2.5v3.5t1 2.5v3.5v2.5v2t1 3v2.5v2.5v3v3v2.5v2.5v7.5v7.5q-1 4 -1 8v8q-1 8 -1.5 16t-2.5 17q-4 23 -12.5 45t-20.5 41q-13 20 -32.5 29.5t-45.5 9.5q-25 0 -43 -9t-30 -27t-18 -38 t-8 -41q-1 -2 -1 -4v-4v-2v-1v-2v-2v-10.5t1 -11.5q0 -6 1.5 -11.5t2.5 -10.5q5 -21 14 -40.5t22 -36.5q14 -18 32 -26.5t41 -8.5q15 0 28.5 4t26.5 12q12 8 23 17.5t21 20.5v2v0z"/>
<glyph glyph-name="semicolon" horiz-adv-x="218" unicode=":" d="M165 46q0 -13 -4.5 -23t-12.5 -18q-8 -7 -18 -11t-21 -4q-12 0 -22 4t-18 11q-8 8 -12 17.5t-4 21.5q0 11 4 21t12 18t18 12.5t22 4.5q11 0 21 -4.5t18 -12.5t12.5 -18t4.5 -21v2v0zM165 362q0 -13 -4.5 -23t-12.5 -18t-18 -12t-21 -4q-12 0 -22 4t-18 12t-12 18t-4 21 t4 21t12 18t18 12.5t22 4.5q11 0 21 -4.5t18 -12.5t12.5 -18t4.5 -21v2v0z"/>
<glyph glyph-name="less" horiz-adv-x="218" unicode=";" d="M26 -142l3 29q17 1 33 5.5t31 13.5t22.5 23.5t7.5 34.5q0 8 -2.5 13.5t-7.5 7.5q-5 3 -11 5l-12 4h-1.5h-0.5q-1 1 -1.5 1h-0.5h-1.5h-0.5q-1 1 -1.5 1h-0.5q-7 2 -14.5 5t-13.5 7q-7 5 -10 14.5t-3 23.5q0 12 4.5 22t13.5 17q9 8 19 11.5t22 3.5q17 0 29.5 -6.5 t21.5 -18.5q9 -13 14.5 -26.5t8.5 -27.5v-4t1 -3v-3.5v-3.5v-2.5t1 -3.5v-2v-2q0 -34 -11 -59.5t-32 -43.5t-48 -27t-59 -9v0v0zM156 363q0 -13 -4.5 -23.5t-12.5 -18.5t-18 -12t-21 -4t-21 4t-18 12t-12 18t-4 22q0 11 4 21t12 18t18 12.5t21 4.5t21 -4.5t18 -12.5 t12.5 -18t4.5 -21v2v0z"/>
<glyph glyph-name="equal" horiz-adv-x="501" unicode="&lt;" d="M457 614v-38l-311 -203l311 -209v-100l-414 277v6l414 267v0v0z"/>
<glyph glyph-name="greater" horiz-adv-x="501" unicode="=" d="M22 292h455v-42h-455v42v0v0zM22 433h455v-42h-455v42v0v0z"/>
<glyph glyph-name="question" horiz-adv-x="501" unicode="&gt;" d="M43 64v38l312 203l-312 209v100l414 -277v-7l-414 -266v0v0z"/>
<glyph glyph-name="at" horiz-adv-x="314" unicode="?" d="M174 46q0 -13 -4.5 -23t-12.5 -18q-8 -7 -18 -11t-21 -4t-21 4t-18 11q-9 8 -13 17.5t-4 21.5q0 11 4 21t13 18q8 8 18 12.5t21 4.5t21 -4.5t18 -12.5t12.5 -18t4.5 -21v2v0zM129 204h-33v171q0 -2 0.5 -2h1.5h0.5t1.5 1h0.5h1.5q24 3 46 10.5t42 19.5t30 32t10 48v1.5 v1.5v0.5v1.5v3.5v2.5q-2 20 -9.5 39t-21.5 36q-13 17 -31 25.5t-40 8.5h-4h-4q-2 -1 -4 -1h-4q-4 -1 -7.5 -1.5t-6.5 -1.5t-5.5 -2t-4.5 -1q-3 -1 -5.5 -1.5t-4.5 -1.5v0h-1q0 -1 -0.5 -1h-0.5h-1.5h-0.5v0v0h-1v0v0v0h-1v0q-4 0 -7.5 2.5t-6.5 6.5q-4 5 -6.5 9.5t-4.5 10.5 q-1 2 -1.5 3.5t-1.5 3.5q-1 1 -1.5 3t-0.5 3q-1 3 -1 6v5v3q0 4 3 7.5t7 6.5q5 3 9.5 5t10.5 3h4.5h5.5h2t3 1h2h2v0h1v0v0h0.5h1.5q27 -1 53.5 -14t51.5 -38t43.5 -52t30.5 -56q4 -10 7 -20t5 -19q2 -10 3.5 -19t1.5 -18v-2v-1v-2v-2v-1.5v-1.5q-1 -1 -1 -1.5v-1.5 q-1 -11 -4.5 -22t-8.5 -22q-6 -10 -13 -19t-16 -16q-2 -2 -4.5 -3.5t-4.5 -3.5q-2 -1 -4 -2.5t-4 -3.5q-7 -4 -14.5 -7.5t-15.5 -5.5q-7 -2 -13.5 -3.5t-12.5 -3.5q-10 -3 -18 -6t-14 -8q-6 -4 -9 -12.5t-3 -21.5v-59v0v0z"/>
<glyph glyph-name="A" horiz-adv-x="735" unicode="@" d="M640 185h40q-16 -44 -44.5 -78t-67.5 -59q-40 -25 -82 -38t-86 -17h-7.5h-6.5h-4t-3 -1h-3.5h-3.5q-68 0 -126.5 24.5t-107.5 75.5q-49 50 -73.5 109t-24.5 126q0 71 24 132t72 113t108 78t132 26q60 0 114 -19.5t102 -57.5q48 -39 72 -90t24 -115v-6v-6q-1 -3 -1 -6v-6 q-1 -6 -1.5 -12t-1.5 -11q-7 -40 -25.5 -77.5t-47.5 -71.5t-65.5 -50.5t-80.5 -16.5h-1.5h-0.5h-1.5h-0.5q-12 0 -23.5 3.5t-22.5 9.5q-10 6 -17 16t-10 23q-11 -11 -24 -20t-27 -17q-14 -7 -29 -11t-32 -4q-26 0 -46.5 10t-34.5 29q-15 20 -22 42t-7 47q0 9 0.5 18.5 t1.5 19.5l4 20t5 20q9 37 27 70.5t44 64.5t58.5 46.5t72.5 15.5h2h2h2h2q14 -1 26.5 -5t24.5 -10q12 -7 21 -17t13 -24l14 45h78l-92 -266q-1 -4 -1.5 -7t-2.5 -6q-1 -2 -1.5 -4t-0.5 -3q-1 -2 -1.5 -3.5t-1.5 -3.5t-1.5 -4t-0.5 -4q-1 -2 -1.5 -4t-0.5 -4q-1 -4 -2.5 -8.5 t-2.5 -8.5t-1 -8v-7q0 -5 1.5 -9t4.5 -7t7.5 -4t9.5 -1q32 0 57.5 12t46.5 37q21 24 35.5 51t22.5 57q2 5 3 9.5t2 9.5q1 4 1.5 9t1.5 9q2 9 2.5 18t0.5 18q0 55 -21.5 99t-63.5 78q-43 34 -90 51t-100 17q-62 0 -114.5 -23t-94.5 -70q-43 -46 -64 -99.5t-21 -114.5 q0 -60 21.5 -112.5t64.5 -97.5t94.5 -67.5t112.5 -22.5q43 0 82 10t73 30q35 20 62.5 48.5t49.5 65.5v2v0zM397 267l54 158q1 1 1.5 3t0.5 5v3t1 3v2.5v2.5v2v2v2v2q-1 11 -5.5 20.5t-11.5 18.5t-16.5 13.5t-20.5 4.5q-23 0 -43.5 -12.5t-37.5 -38.5q-18 -25 -31.5 -53.5 t-24.5 -58.5q-7 -19 -12 -37t-8 -35q-3 -18 -4.5 -32.5t-1.5 -25.5q0 -12 3.5 -22.5t10.5 -19.5q8 -9 17.5 -13t22.5 -4q17 0 30.5 6t25.5 18t21.5 25.5t16.5 28.5q2 4 3.5 7.5t2.5 7.5q2 4 3.5 7.5t2.5 7.5v2v0z"/>
<glyph glyph-name="B" horiz-adv-x="641" unicode="A" d="M300 661l58 26q5 -20 10.5 -38t10.5 -36t11 -36t12 -35l108 -320q1 -4 2 -7.5t2 -6.5q0 -3 1 -6l2 -6l4 -12t4 -11q4 -12 8.5 -24t8.5 -24q5 -12 9.5 -23.5t9.5 -22.5q6 -13 13.5 -21.5t17.5 -12.5t21.5 -7t24.5 -5v-1h1h0.5h1.5v-32h-14.5h-14.5q-8 0 -15 0.5t-15 0.5 q-15 1 -29.5 1.5t-28.5 0.5h-11.5h-10.5q-6 -1 -11.5 -1h-10.5q-10 -1 -20.5 -1.5t-21.5 -0.5h-8h-7h-7.5h-6.5v34q0 -2 0.5 -2h1.5h2h2h2t2 1h2.5h2.5h2t3 1h2.5h2.5q7 1 13 3t12 5t9 8.5t3 12.5v2v2q-1 1 -1 2v2v2v2q-1 1 -1 2.5v2.5q-1 3 -1.5 7t-2.5 8q-1 4 -2 7.5 t-2 7.5q-1 2 -2 4.5t-2 4.5t-1.5 4.5t-0.5 4.5l-44 139h-209l-36 -101q-1 -5 -2 -8l-2 -6q-1 -1 -1.5 -2.5t-0.5 -2.5l-1.5 -3t-0.5 -3q-4 -10 -7 -19.5t-6 -19.5t-4.5 -19.5t-1.5 -18.5q0 -7 2.5 -12.5t8.5 -8.5t12.5 -5t13.5 -4h3h3q1 -1 2.5 -1h2.5h2h3q1 -1 2.5 -1h2.5 h0.5h1.5h0.5h1.5v-32h-13.5h-12.5q-7 0 -13.5 0.5t-13.5 0.5q-13 1 -26 1.5t-26 0.5t-25.5 -0.5t-24.5 -1.5t-24 -1h-23l-2 34q2 -1 2.5 -1.5l0.5 -0.5h0.5h1.5h1.5t1.5 1h1.5h1.5h4t5 1q2 0 4 0.5t4 0.5q4 1 8 2.5t8 2.5q4 2 8 5t8 8t8.5 11t8.5 13q5 8 9.5 16.5t8.5 18.5 l4 10t5 10l4 10l4 10q6 16 12 31t11 29t9 25t7 18l75 201q5 11 9.5 23.5t9.5 25.5l10 26l10 26q5 12 9.5 25t9.5 26q2 6 4.5 12.5t5.5 13.5q2 6 4.5 12.5t4.5 12.5v2v0zM396 314l-82 257l-94 -257h176v0v0z"/>
<glyph glyph-name="C" horiz-adv-x="588" unicode="B" d="M344 365q40 -4 75 -15t65 -30t45 -51.5t15 -77.5q0 -53 -18.5 -90.5t-55.5 -59.5t-79 -32t-89 -10h-8.5h-9.5q-4 1 -8.5 1h-9.5h-18h-17q-9 0 -18 0.5t-18 1.5h-8.5t-9.5 1h-8.5h-9.5h-7.5h-6.5q-4 -1 -7.5 -1h-7.5h-7.5h-6.5q-4 -1 -7.5 -1h-6.5h-2.5h-2.5h-1.5h-0.5 q-1 -1 -1.5 -1h-0.5h-6h-6h-7h-6h-12h-12v34q19 -2 33 0.5t24 8.5q10 5 15 18.5t6 34.5l1 67v343l-1 66q-1 21 -6.5 34.5t-16.5 17.5q-10 5 -25 7.5t-34 2.5v36q3 -2 6 -2.5t6 -0.5h3.5h3.5q1 -1 3 -1h4h3.5h2.5q2 -1 3.5 -1h2.5h6.5h7.5q6 -1 12 -1.5t13 -0.5h12.5h13.5h18 h18t18.5 0.5t19.5 1.5h9.5h9.5h9h9h9.5t9.5 1h9h9l52 2q31 -2 57.5 -11.5t48.5 -27.5q23 -18 34 -43.5t11 -58.5q0 -36 -11 -63t-33 -47q-22 -19 -48.5 -32.5t-57.5 -21.5v2v0zM206 334v-161v-6.5v-4.5v-4.5v-4.5q0 -1 -0.5 -2.5t-0.5 -2.5v-3v-3v-6v-6q0 -28 4 -46.5 t12 -29.5q8 -10 26.5 -15t46.5 -5q37 0 67 10t52 30q23 20 34 49t11 67q0 45 -15 73.5t-44 41.5q-30 13 -62.5 20t-67.5 8h-3h-3h-3.5h-3.5h-6h-6h-5.5h-4.5h-5h-4q-3 -1 -5.5 -1h-4.5h-4.5h-4.5v2v0zM206 375q2 -2 4.5 -2h4.5h4.5h4.5q35 1 67.5 7.5t62.5 19.5 q29 12 44 40.5t15 73.5q0 30 -11 52t-33 35t-46 19.5t-50 7.5h-2h-2h-1.5h-0.5h-7.5h-7.5h-4h-4q-2 -1 -3.5 -1h-3.5h-4h-4q-2 -1 -4 -1h-4h-7.5h-7.5v-251v0v0z"/>
<glyph glyph-name="D" horiz-adv-x="680" unicode="C" d="M646 488l-33 -6q-9 39 -26.5 68t-43.5 47t-59.5 27.5t-74.5 9.5q-63 0 -113 -22t-87 -66q-37 -43 -55 -95.5t-18 -113.5q0 -64 18 -119t55 -99q36 -44 88.5 -66t119.5 -22q44 0 78 10.5t59 31.5q24 21 41 52.5t27 72.5l35 -1l-23 -154q-28 -13 -56 -22t-57 -17 q-29 -7 -58.5 -10.5t-59.5 -3.5q-78 0 -143 21.5t-117 66.5t-77.5 108t-25.5 144q0 77 26.5 139.5t78.5 110.5q53 48 116.5 72t139.5 24h6h6q2 -1 5 -1h6h6t6 -1q2 0 5 -0.5t6 -0.5q22 -2 43.5 -6t43.5 -10l22 -6t22 -5q10 -3 21 -6l22 -6q1 -1 2 -1.5t2 -0.5h1.5h1.5 q0 -1 0.5 -1h1.5l16 -143v0v0z"/>
<glyph glyph-name="E" horiz-adv-x="744" unicode="D" d="M44 633v34q3 -2 6 -2.5t6 -0.5h3h3q1 -1 2.5 -1h2.5q9 -1 18 -1.5t18 -0.5q9 -1 18 -1h18h34.5t35.5 1h18t18 1q8 0 17 0.5t18 0.5h34.5t35.5 1h18t18 1h17h18q70 0 122.5 -24.5t88.5 -74.5q36 -49 54 -106t18 -121q0 -35 -6 -69t-18 -67t-30.5 -62t-44.5 -54 q-28 -28 -57.5 -46t-61.5 -27t-66.5 -12.5t-72.5 -3.5h-11.5h-10.5q-6 1 -11.5 1h-11.5t-11.5 0.5t-10.5 0.5h-11.5h-10.5q-11 0 -22.5 0.5t-22.5 1.5h-11.5t-10.5 1h-11.5h-10.5h-16t-16 -1q-9 0 -17 -0.5t-16 -0.5q-16 -1 -32 -1h-32v34q19 -2 34 0.5t25 7.5 q11 5 16.5 18.5t6.5 35.5l1 67v340l-1 66q-1 20 -6 33t-15 18t-24.5 8t-32.5 3v2v0zM208 620v-13v-11v-11v-10q-1 -6 -1 -11.5v-10.5v-11.5v-10.5v-322v-50v-18v-16v-8t1 -7q0 -4 0.5 -8t1.5 -8q1 -6 2.5 -12t4.5 -11q2 -5 6 -9.5t9 -7.5t10 -4.5t12 -3.5q6 -1 13 -2.5 t14 -1.5q3 0 6 -0.5t6 -0.5q2 -1 5 -1h6h11.5h9.5h3.5h2.5h3.5h2.5q25 0 49 3t48 9q24 5 46 17t41 30q22 20 38.5 44.5t26.5 52.5q11 29 17.5 57.5t7.5 58.5v3.5t1 3.5v3v3v6v6q0 70 -20 123t-61 89q-40 36 -94 54.5t-122 18.5h-6.5h-6.5q-4 -1 -7.5 -1h-6.5h-6.5h-6.5 q-4 -1 -7 -1h-6h-2.5h-3.5h-1.5h-0.5h-1.5h-1.5q-6 -1 -11.5 -1.5t-10.5 -0.5h-10.5h-10.5v2v0z"/>
<glyph glyph-name="F" horiz-adv-x="575" unicode="E" d="M502 531l-36 -8v-1v0q-1 0 -1 0.5v0.5v0.5v1.5q-1 2 -1.5 4.5t-0.5 5.5q0 2 -0.5 3t-0.5 3q-1 1 -1 2.5v2.5q-1 8 -3.5 14.5t-5.5 13.5t-7.5 13t-9.5 10q-7 6 -16.5 10.5t-20.5 7.5q-5 1 -10.5 2t-10.5 2q-6 1 -11.5 1.5t-10.5 1.5h-6t-5 1h-5.5h-5.5h-11h-10h-8.5h-9.5 h-8h-8q-4 -1 -8.5 -1h-9.5h-4h-4h-5h-4q-10 0 -17.5 -1t-10.5 -3q-4 -2 -5.5 -8t-1.5 -17v-230h105q26 -2 45.5 1t32.5 9q12 6 18.5 23.5t6.5 45.5l35 2q-1 -14 -1.5 -27t-0.5 -25v-25.5v-25.5v-6v-6v-7v-6v-6t1 -6v-6v-6v-6t1 -6q0 -4 0.5 -7t0.5 -6q0 -6 0.5 -12t1.5 -12 l-38 2q-1 28 -7.5 45t-18.5 21q-12 5 -32 7.5t-48 2.5l-102 2v-137v-38v-7v-5v-5.5v-4.5q0 -10 0.5 -19t1.5 -18t2.5 -15t4.5 -10q3 -5 7 -8.5t9 -5.5t10.5 -3.5t11.5 -2.5q9 -1 18 -2.5t18 -1.5h18h18l29 2q38 -2 65 2t45 13t32.5 32.5t25.5 61.5l34 -7l-34 -144h-41.5 t-40.5 1h-20t-20 1h-20h-20h-10t-10 1h-11h-10h-20h-20l-114 1q-16 -2 -31.5 -3t-30.5 -1h-15h-16h-15h-16v35q19 -2 33.5 0.5t24.5 7.5t15 18.5t6 34.5l1 68v340l-1 65q-1 20 -6 33.5t-15 18.5t-24.5 7.5t-33.5 2.5v37q14 -2 28 -3.5t28 -1.5q14 -1 28 -1h28q14 -1 27.5 -1 h27.5h28h28h14h14h13h14h14t14 1h14h14q14 0 27.5 0.5t26.5 1.5q14 0 28 0.5t28 1.5l15 -135v0v0z"/>
<glyph glyph-name="G" horiz-adv-x="505" unicode="F" d="M478 524l-34 -3q-3 26 -11.5 46t-22.5 32t-35 18t-48 7h-10h-10h-5.5t-4.5 1h-5.5h-4.5h-11h-10h-5.5t-4.5 1h-5.5h-4.5q-13 0 -21 -1t-12 -3q-4 -1 -5.5 -6.5t-1.5 -13.5v-5.5v-4.5v-5t1 -4v-5.5v-4.5v-5.5v-4.5v-218h93q33 -2 54 0.5t29 6.5q8 5 14 16t9 27 q0 3 0.5 6.5t1.5 7.5q0 3 1 7l2 8l33 2v-5.5v-4.5q-1 -2 -1 -4.5v-4.5v-4v-4v-5v-4q-1 -9 -1.5 -17.5t-0.5 -16.5v-16.5v-16.5v-6v-6v-7v-6v-6t1 -6v-6v-6v-4v-4v-2t1 -2v-2v-2v-4v-4v-5v-4v-4t1 -4v-4v-4l-33 2q0 -1 0 -0.5v1.5q-1 1 -1 1.5v1.5v2v2v1v2q-1 15 -4.5 26.5 t-9.5 20.5t-24 13.5t-48 4.5l-117 2v-141l1 -66q0 -23 6 -37t16 -19q11 -4 25.5 -6.5t33.5 -2.5v-33h-14.5h-15.5h-7.5t-6.5 1q-4 0 -7.5 0.5t-7.5 0.5h-14.5h-15.5h-7.5t-6.5 1h-7.5h-7.5h-8h-8q-4 -1 -8 -1h-8h-16h-16q-8 -1 -16 -1.5t-16 -0.5h-16h-16v35q19 -2 33.5 0.5 t24.5 7.5t15 18.5t6 34.5l1 68v340l-1 65q-1 22 -6.5 35.5t-16.5 17.5q-11 5 -26 7t-34 2v37q14 -2 28.5 -3.5t28.5 -1.5q14 -1 28.5 -1h29.5q14 -1 28 -1h29h28.5h28.5h24h24h12t13 1h12h12q12 0 24 0.5t24 1.5h12t13 1q6 0 12 0.5t12 0.5l16 -142v0v0z"/>
<glyph glyph-name="H" horiz-adv-x="704" unicode="G" d="M636 492l-30 -5q-9 37 -26 64.5t-43 45.5q-25 18 -58 27t-72 9q-70 0 -121 -25t-84 -75q-33 -49 -49.5 -105.5t-16.5 -118.5q0 -58 17.5 -108t53.5 -91q35 -40 83 -60.5t109 -20.5q29 0 52.5 4t41.5 13q17 8 26 28t9 51v24q0 27 -3 45t-9 25q-6 8 -25 12.5t-51 5.5l-23 3 v36q17 -4 33.5 -5.5t32.5 -2.5q8 0 16 -0.5t17 -0.5h16h16q16 0 31.5 0.5t31.5 1.5t31.5 2.5t31.5 2.5v-34q-21 -2 -33.5 -6.5t-17.5 -10.5q-5 -7 -8 -20.5t-4 -34.5v-57v-22.5t1 -20.5t3 -20t5 -20q-23 -8 -46.5 -15t-47.5 -12q-12 -1 -24 -3t-23 -4q-12 -2 -24 -3.5 t-24 -2.5h-10h-10h-4.5t-4.5 -1h-5.5h-4.5q-73 0 -135.5 20.5t-113.5 63.5q-52 43 -77.5 103t-25.5 137q0 86 24.5 152.5t73.5 114.5q50 48 116.5 72.5t151.5 24.5h5.5h5.5q2 -1 4.5 -1h5.5h5.5h5.5q2 -1 5 -1h6q22 -2 43.5 -5.5t43.5 -8.5q21 -5 42 -10.5t42 -11.5l16 -145 v0v0z"/>
<glyph glyph-name="I" horiz-adv-x="780" unicode="H" d="M207 368h367v136l-2 65q-1 20 -6 33t-15 18t-24.5 8t-34.5 3v37q5 -2 10 -2.5t11 -1.5q5 0 10 -0.5t10 -0.5t10 -0.5t11 -0.5q5 -1 10 -1h10h10h10h10.5h10.5h15.5h15.5q7 0 15 0.5t15 0.5q15 0 30.5 1.5t31.5 2.5v-33h-11q-19 -2 -32 -5.5t-21 -9.5q-7 -6 -11.5 -18.5 t-4.5 -32.5l-1 -63v-340l1 -66q0 -20 4.5 -33.5t11.5 -19.5q8 -6 21 -9t32 -3l11 2v-35h-30t-30 1q-7 0 -15 0.5t-15 0.5q-8 1 -15.5 1h-15.5h-12h-11q-6 -1 -12 -1h-12t-12 -0.5t-11 -0.5q-6 -1 -12 -1h-12h-7.5h-7.5h-8h-8v35q20 -2 34.5 0.5t24.5 8.5q10 5 15 18t6 34 l2 68v161h-367v-161l1 -66q0 -23 6 -36.5t16 -18.5q11 -5 25 -7.5t33 -2.5v-33h-16h-16q-9 0 -17 0.5t-16 0.5q-16 1 -32 1.5t-32 0.5h-11.5h-10.5q-6 -1 -11.5 -1h-10.5q-11 -1 -22 -1.5t-22 -0.5h-8h-7h-7.5h-7.5v35q19 -2 34 0.5t25 7.5q11 5 16 18t6 35l1 68v340l-1 65 q-1 21 -6 34.5t-16 17.5q-10 5 -25 7.5t-34 2.5v37q15 -2 30.5 -3.5t31.5 -2.5q15 -1 30.5 -1h31.5h15.5h15.5q7 0 15 0.5t15 0.5q15 1 30.5 2t31.5 2v-33h-11q-18 -2 -31 -5.5t-21 -9.5t-12.5 -18.5t-4.5 -32.5l-1 -63v-136v0v0z"/>
<glyph glyph-name="J" horiz-adv-x="328" unicode="I" d="M42 633v35q8 -2 15.5 -3t14.5 -1q8 -1 16 -1.5t16 -0.5q4 0 8 -0.5t8 -0.5h7h8h8h8h7h8h15.5h15.5q7 0 15 0.5t15 0.5l30 2l30 2v-33h-12q-18 -2 -31 -5.5t-21 -9.5t-12.5 -18.5t-4.5 -32.5l-1 -63v-340l1 -66q0 -23 6 -36.5t16 -18.5q11 -5 25.5 -7.5t33.5 -2.5v-33h-8 h-7h-8h-8q-7 0 -14.5 0.5t-15.5 1.5h-8h-7h-8h-8h-7.5t-7.5 1h-7.5h-7.5q-16 0 -31.5 -0.5t-30.5 -1.5q-7 0 -15 -0.5t-15 -0.5h-15.5h-15.5v35q19 -2 34 0.5t25 7.5q11 5 16 18t6 35l1 68v340l-1 65q-1 20 -6 33.5t-16 18.5q-10 5 -25 7.5t-34 2.5v2v0z"/>
<glyph glyph-name="K" horiz-adv-x="310" unicode="J" d="M33 668q4 -2 8 -2.5t8 -0.5q3 -1 7 -1h8q8 -1 16 -1.5t16 -0.5h7.5h7.5q4 -1 7.5 -1h7.5h16h16h15.5h14.5h7.5t7.5 1h8h8q8 0 15.5 0.5t14.5 1.5q8 0 15.5 0.5t14.5 1.5v-33q-1 -2 -2.5 -2h-3.5h-1.5h-1.5q-1 -1 -1.5 -1h-1.5h-2.5h-3.5h-2h-2q-9 -1 -16.5 -2.5 t-15.5 -4.5q-7 -3 -11 -10.5t-6 -18.5q-1 -8 -2 -16.5t-1 -16.5v-16.5v-16.5v-74v-173v-15.5v-14.5v-7.5t1 -6.5v-7.5v-6.5v-14.5v-14.5v-7.5t1 -6.5v-7.5v-6.5q0 -30 -1 -57.5t-3 -53.5q-2 -19 -6 -37t-10 -35q-3 -6 -5 -12t-5 -12q-4 -8 -9 -16t-10 -17q-5 -8 -11 -16.5 t-13 -17.5q-4 -5 -7.5 -9.5t-8.5 -9.5q-4 -5 -9 -10l-10 -10q-9 -9 -19.5 -18t-21.5 -18q-11 -8 -22.5 -15t-22.5 -12q-4 -2 -7.5 -3t-5.5 -2q-2 0 -3.5 -1t-3.5 -1q-5 -2 -10.5 -2.5t-11.5 -0.5h-2h-2q-2 1 -3.5 1h-3.5h-3.5h-3.5q-2 1 -4 1h-4q-5 1 -10.5 2.5t-9.5 3.5 q-5 2 -7.5 5t-2.5 8q0 2 1 5t3 8l2 4l2 4q1 3 2 5t3 4q1 1 2 2.5t1 3.5q1 1 2 2.5t2 3.5q1 1 2 2.5t1 2.5l2 2l2 2q2 3 4.5 4.5t4.5 3.5q2 1 3.5 2.5t3.5 1.5h1.5h0.5h1.5t0.5 -1h1.5h0.5h1.5h0.5q6 -2 12 -4.5t12 -3.5q2 -1 4 -1t4 -1q3 -1 7 -1.5t8 -0.5q26 0 44.5 9.5 t29.5 29.5q11 19 18 40t11 44q2 10 2.5 19t1.5 18v9t1 9v8.5v8.5l1 122v117v155v19.5v20.5v10.5v11.5q-1 5 -1 10.5v11.5v10.5v10.5v5.5v5.5q-1 2 -1 5v6q-1 23 -7 36t-16 17q-10 5 -24.5 7.5t-34.5 3.5h-1.5h-1.5h-1.5h-0.5v37v0v0z"/>
<glyph glyph-name="L" horiz-adv-x="677" unicode="K" d="M205 336l120 131q4 3 7.5 6.5l7.5 7.5q3 4 6.5 8.5t7.5 8.5t7.5 8.5t7.5 8.5q3 5 6.5 9.5t7.5 8.5q3 4 6.5 8.5t7.5 8.5l4 4t4 5q1 2 3 4l4 4l2.5 2.5l2.5 2.5t1.5 2t1.5 2l0.5 1t1.5 2q2 2 3.5 4t2.5 4q1 1 1.5 2l1.5 3q0 1 0.5 2t1.5 2q1 2 1.5 4t1.5 4t1.5 4t0.5 4 q0 5 -2 8.5t-5 4.5q-4 2 -7.5 3t-8.5 2h-2t-2 1h-2h-2h-3.5h-3.5l-11 2v35q14 -2 27.5 -3.5t26.5 -2.5q14 -1 27.5 -1h26.5h28.5t29.5 1q14 1 28.5 2t28.5 2v-33q-22 -2 -41.5 -7.5t-35.5 -14.5t-30.5 -19.5t-28.5 -24.5q-2 -2 -4.5 -4t-4.5 -4q-2 -3 -4.5 -5t-4.5 -4 t-4 -4.5t-4 -4.5q-3 -2 -5 -4.5t-4 -4.5l-116 -120l158 -208q5 -8 10.5 -16.5t11.5 -16.5q6 -9 12 -17.5t13 -16.5q15 -20 31.5 -38.5t35.5 -35.5q18 -16 39 -24.5t44 -8.5v-30h-13.5h-12.5h-13.5h-13.5h-26h-26q-12 0 -21 1t-15 4q-7 2 -13 6t-12 10q-3 2 -6 5t-6 7 q-3 3 -6 7.5t-6 8.5q-2 3 -4.5 6t-4.5 6q-3 3 -5.5 6t-4.5 6q-4 6 -8.5 12.5t-9.5 13.5q-3 3 -5.5 6t-4.5 7q-3 3 -5.5 6t-4.5 6t-4.5 6t-4.5 7q-2 3 -4.5 6t-4.5 6l-146 203l-64 -68v-120l2 -66q0 -23 6 -36.5t16 -18.5q11 -5 25 -7.5t33 -2.5v-33h-8h-8h-7.5h-7.5 q-11 0 -22.5 0.5t-22.5 1.5h-11.5t-10.5 1h-11.5h-11.5h-8h-8q-4 -1 -8 -1h-8h-14.5h-15.5q-8 -1 -16 -1.5t-16 -0.5h-8h-7h-8h-8v35q19 -2 34 0.5t25 7.5q11 5 16 18t6 35l1 68v340l-1 65q-1 21 -6 34.5t-16 17.5q-10 5 -25 7.5t-34 2.5v37q8 -2 15.5 -2.5t15.5 -1.5 q7 -1 15 -1.5t15 -0.5q15 -1 30.5 -1h31.5h15.5h15.5q7 0 15 0.5t15 0.5q15 1 30.5 2t31.5 2v-33h-12q-18 -2 -31 -5.5t-21 -9.5q-7 -6 -11.5 -18.5t-4.5 -32.5l-2 -63v-168v0v0z"/>
<glyph glyph-name="M" horiz-adv-x="525" unicode="L" d="M499 149l33 -9l-42 -140q-40 1 -80.5 1.5t-81.5 0.5h-40.5t-40.5 1h-41.5h-40.5q-15 0 -30 -0.5t-30 -1.5q-7 0 -15 -0.5t-15 -0.5h-15.5h-15.5v35q19 -2 33.5 0.5t24.5 7.5t15 18.5t5 34.5l2 68v340l-2 65q0 20 -5 33.5t-16 18.5q-10 5 -24.5 7.5t-32.5 2.5v37 q4 -2 7.5 -2.5t7.5 -0.5q3 -1 6.5 -1h7.5t7.5 -0.5t7.5 -0.5q3 -1 6.5 -1h7.5h6.5h7.5q3 -1 6.5 -1h7.5h15.5h14.5h32t32 1q17 0 33.5 1.5t32.5 2.5v-33h-13q-19 -2 -32 -5.5t-21 -9.5q-7 -6 -11.5 -18.5t-4.5 -32.5l-1 -63v-330v-62v-6.5v-4.5v-4t1 -4q0 -7 1.5 -14 t3.5 -13t5.5 -11t9.5 -8q4 -3 10 -4.5t14 -2.5t17 -1.5t18 -0.5h4h4h4.5h4.5q39 0 70.5 3t53.5 10q23 7 40.5 31t30.5 65v2v0z"/>
<glyph glyph-name="N" horiz-adv-x="883" unicode="M" d="M33 668q2 -2 4.5 -2.5t5.5 -0.5q2 -1 4.5 -1h4.5q5 -1 10 -1h10q5 -1 9.5 -1h8.5h10h10h10.5h10.5h10.5t11.5 1h10t11 1q5 0 10.5 0.5t10.5 1.5q11 -26 22 -51.5t23 -51.5q11 -25 23 -50.5t24 -51.5l154 -317l153 319q4 7 8 14.5t8 15.5t8 17l8 18q2 2 3 4.5t3 5.5l2.5 5 t2.5 6q2 5 4.5 10.5t5.5 11.5q5 12 10.5 24t9.5 24q5 12 9 24t8 23q5 -1 10.5 -1.5t11.5 -0.5q5 -1 10.5 -1h10.5q11 -1 21.5 -1h20.5h19.5t19.5 1q10 0 19.5 1t19.5 2v-31h-21q-19 -2 -33.5 -5.5t-22.5 -9.5t-12 -19t-4 -33v-6v-6v-6t1 -6l10 -355l1 -59q0 -30 3 -49t9 -28 q5 -9 22.5 -14t46.5 -6v-33h-31.5t-30.5 1q-7 0 -15 0.5t-15 0.5q-8 1 -15.5 1h-15.5q-16 0 -31.5 -0.5t-30.5 -1.5q-7 0 -15 -0.5t-15 -0.5h-15.5h-15.5v35q24 -1 40.5 3.5t24.5 12.5t12.5 23.5t4.5 39.5v38l-4 387l-196 -414q-1 -5 -2.5 -8t-3.5 -6q-1 -1 -1.5 -2.5 t-0.5 -3.5q-1 -1 -1.5 -2.5t-1.5 -2.5q-6 -12 -11.5 -24t-10.5 -24t-9.5 -24t-9.5 -24l-16 2l-8 15l-242 512l-5 -327q-1 -10 -1 -18.5v-16.5v-17.5v-16.5q0 -22 2.5 -40.5t7.5 -33.5t21 -22.5t43 -7.5l8 2v-35h-7.5h-6.5h-3h-3h-3.5h-3.5h-10t-10 1q-6 0 -11 0.5t-10 0.5 h-10t-10 1h-11h-10q-13 0 -25.5 -0.5t-24.5 -1.5q-6 0 -12 -0.5t-12 -0.5h-13h-12v35q1 -2 2 -2h2h1.5t1.5 1h0.5h1.5h3.5h2.5h3.5t2.5 1q5 0 10.5 1.5t10.5 2.5q5 2 9.5 5t8.5 7q3 5 6 11.5t4 13.5q2 8 3.5 16t2.5 16v5.5t1 5.5v4.5v5.5v5.5t1 4.5v5.5v4.5v2v2v1.5v1.5v0.5 v1.5l1 36l10 303v4v6v3t1 3v2.5v2.5v3.5t1 2.5v3.5v2.5v3v3v2.5v2.5v3t1 3v2.5v2.5v6v6q0 20 -3.5 33.5t-11.5 20.5q-7 8 -20 11.5t-32 3.5l-25 2v33v0v0z"/>
<glyph glyph-name="O" horiz-adv-x="761" unicode="N" d="M40 668q5 -2 10.5 -3t10.5 -1h5.5h5.5q2 -1 5 -1h6h5.5h5.5q2 -1 4.5 -1h5.5h10.5h11.5h4.5h5.5h4.5h4.5h4.5t5.5 1h4.5h5.5h4.5t4.5 1h4.5h4.5q5 0 10 0.5t10 1.5l7 -6l389 -512v232v58l-4 104q-1 25 -4.5 42.5t-9.5 27.5q-6 9 -23 14t-44 6v36q6 -2 12.5 -3t13.5 -1 q7 -1 13.5 -1.5t13.5 -0.5q6 -1 12.5 -1h13.5h13.5h13.5h13.5h13.5h6t7 1h6.5h7.5q6 0 12.5 0.5t13.5 1.5q7 0 13.5 0.5t13.5 1.5v-32q-2 -2 -4.5 -2h-4.5h-5h-4q-5 -1 -9.5 -1.5t-9.5 -1.5q-4 -1 -8.5 -3t-8.5 -4q-6 -4 -10 -9.5t-7 -12.5q-1 -4 -2.5 -7.5t-2.5 -6.5 q0 -4 -1 -7.5t-1 -7.5q-1 -4 -1 -8.5v-9.5v-8.5v-7.5v-4l-2 -106l-4 -443h-18l-61 78l-396 512l2 -296v-9v-7v-3v-3v-3.5v-3.5v-20t1 -19q0 -10 0.5 -20t0.5 -20q0 -19 1.5 -38.5t3.5 -39.5t8 -33t15 -18t22.5 -7.5t32.5 -2.5v-31h-14h-14t-14 0.5t-14 1.5h-14.5h-14.5h-7.5 t-6.5 1h-7.5h-6.5h-6.5h-6.5q-4 -1 -7 -1h-6h-6h-6q-3 -1 -6 -1h-6h-3.5h-3.5q-1 -1 -2.5 -1h-3.5h-3h-3h-3.5h-3.5h-3h-3h-3.5h-3.5h-6h-6v33q29 -2 45.5 5t21.5 20q5 14 7.5 32.5t3.5 41.5v0.5v1.5v1.5v1.5l2 73l4 302v34q0 26 -4.5 43.5t-12.5 24.5q-9 7 -25.5 11.5 t-41.5 6.5v36v0v0z"/>
<glyph glyph-name="P" horiz-adv-x="775" unicode="O" d="M735 334q0 -76 -25.5 -137.5t-75.5 -110.5t-112.5 -72.5t-136.5 -23.5q-75 0 -136.5 24.5t-110.5 73.5q-49 50 -73.5 111.5t-24.5 135.5t25.5 135t77.5 109t114 72.5t134 24.5q73 0 134.5 -24.5t110.5 -74.5q50 -49 74.5 -110.5t24.5 -134.5v2v0zM642 324v5v7 q-1 3 -1 6.5v6.5q-1 7 -1.5 14t-1.5 14q-7 48 -27 93t-52 85q-31 41 -73.5 61t-95.5 20q-62 0 -109.5 -23t-80.5 -68t-49.5 -96t-16.5 -108v-4v-4v-5v-4v-4t1 -4v-4v-4q5 -53 23.5 -101.5t51.5 -92.5t79 -66t104 -22q60 0 106.5 22.5t77.5 67.5q32 45 48 95t17 105v1.5v1.5 v1.5v1.5v2v0z"/>
<glyph glyph-name="Q" horiz-adv-x="512" unicode="P" d="M261 290v33q35 1 62 11.5t48 31.5q21 20 31.5 48t10.5 63q0 40 -12 69t-36 47t-54 27t-66 9h-8.5h-9.5h-4.5h-4.5q-2 -1 -4 -1h-4q-1 -8 -1.5 -16t-0.5 -16v-16v-16q-1 -8 -1 -16v-16v-16v-16v-336l1 -66q0 -24 6 -37.5t17 -18.5q11 -4 26 -6.5t34 -2.5v-33h-14.5h-15.5 q-7 0 -14.5 0.5t-15.5 1.5h-15.5h-15.5h-7.5t-7.5 1h-7.5h-7.5h-16t-16 -1q-9 0 -17 -0.5t-16 -0.5q-16 -1 -32 -1h-32v35q19 -2 34 0.5t25 7.5q11 5 16 18t6 35l2 68v340v6v8v8.5v7.5v0.5v1.5v0.5v1.5q-1 23 -4 40t-8 29t-23 18t-48 6v37q5 -2 10 -3t10 -1h10.5h10.5 q5 -1 10 -1h10h10.5h10.5h10h11q5 0 10 0.5t10 0.5h10t11 1q5 0 10 0.5t10 0.5q10 0 20 0.5t20 1.5h10.5t10.5 1h10.5h10.5l34 2q40 -2 71.5 -14t54.5 -36t35 -56t12 -72q0 -50 -18 -88.5t-53 -64.5t-75.5 -39t-86.5 -13v2v0z"/>
<glyph glyph-name="R" horiz-adv-x="773" unicode="Q" d="M438 -7l124 -59v0l1 -1h0.5h0.5q1 0 2 -0.5t2 -1.5q38 -18 77.5 -35t79.5 -33q41 -16 83 -24t85 -8q19 0 37.5 1t36.5 3q9 1 18 2.5t19 3.5l18 4l18 4l3 -25h-2t-1 -1h-2h-2t-2.5 -0.5t-3.5 -1.5q-3 0 -6 -0.5t-5 -1.5q-3 0 -6 -0.5t-6 -1.5t-6 -1.5t-5 -1.5 q-3 0 -5.5 -0.5t-5.5 -1.5q-22 -5 -44 -8.5t-44 -6.5q-11 -2 -22 -3l-22 -2q-12 0 -23 -0.5t-22 -0.5q-30 0 -62.5 6t-67.5 17q-35 12 -71 25.5t-72 30.5q-14 7 -28 13.5t-28 13.5l-28 14l-28 14q-26 13 -51.5 26.5t-49.5 25.5q-25 13 -47.5 23t-42.5 20q-46 22 -81.5 53.5 t-60.5 73.5t-37.5 88t-12.5 97q0 74 25.5 135t76.5 110t113 73.5t135 24.5q71 0 132 -24.5t111 -73.5t75 -109.5t25 -132.5q0 -71 -20 -128t-60 -101q-40 -43 -93.5 -71.5t-121.5 -41.5v0v0zM641 325v2.5v3.5q-1 1 -1 3v4v8v8q-4 53 -23 101t-52 92t-78 66t-104 22 t-105 -22.5t-78 -66.5q-32 -45 -49 -94t-19 -102v-1.5v-0.5v-1.5v-1.5v-2.5v-3.5q0 -59 16 -113t48 -102q32 -49 80.5 -73t114.5 -24q60 0 106.5 22.5t77.5 67.5q32 45 48.5 95t17.5 105v1.5v1.5v1.5v1.5v2v0z"/>
<glyph glyph-name="S" horiz-adv-x="638" unicode="R" d="M638 31v-31h-67q-29 0 -48.5 2t-28.5 8q-9 5 -16.5 12.5t-12.5 16.5q-1 2 -2.5 4.5t-3.5 5.5q-1 2 -2.5 4.5t-3.5 5.5l-174 252q-4 -2 -8.5 -3t-9.5 -1h-8.5h-9.5q-5 -1 -9.5 -1h-9.5h-8.5h-9.5v-142l1 -66q0 -23 6 -37t16 -19q11 -5 26 -7.5t34 -2.5l-1 -32h-15h-15 q-8 0 -15.5 0.5t-15.5 0.5q-7 0 -15 0.5t-15 0.5q-8 1 -15.5 1h-15.5q-16 0 -31.5 -0.5t-30.5 -1.5q-16 -1 -31.5 -1h-30.5v34q19 -2 33.5 0.5t24.5 7.5q11 5 16 18.5t6 35.5l1 68v340l-1 65q-1 20 -6 33.5t-16 18.5q-10 5 -24.5 7.5t-33.5 2.5v37q10 -2 19.5 -3.5 t19.5 -2.5t19.5 -1h19.5h24.5t25.5 1q12 0 24.5 1t25.5 2q12 0 24 0.5t25 1.5h12t13 1h12.5h12.5q33 0 61.5 -11t52.5 -32q24 -22 36.5 -49.5t12.5 -61.5t-8.5 -62.5t-25.5 -51.5q-16 -24 -39.5 -41.5t-53.5 -29.5q4 -4 7.5 -8.5t7.5 -9.5t7.5 -10.5t7.5 -10.5 q0 -1 0.5 -1.5t1.5 -0.5q0 -1 0.5 -1.5t0.5 -1.5t0.5 -1.5t1.5 -0.5q0 -1 0.5 -1.5l1.5 -1.5l95 -127q3 -6 7.5 -12t8.5 -12q5 -7 10 -13.5t10 -12.5q2 -3 4.5 -6t4.5 -6t4.5 -5.5t5.5 -4.5q5 -6 10 -11.5t10 -10.5q2 -3 4.5 -5t5.5 -4q2 -2 4.5 -3.5t4.5 -3.5q6 -4 13 -6 l14 -4q8 -1 15.5 -2t14.5 -2v2v0zM206 346h35q32 -2 60 7.5t52 28.5t36 46t12 61q0 37 -11.5 64t-34.5 43q-22 17 -50.5 25t-61.5 8h-4h-4q-3 -1 -5 -1h-4h-4.5h-4.5q-2 -1 -4.5 -1h-4.5v-7.5v-7.5q-1 -4 -1 -7.5v-7.5v-14.5v-15.5v-8v-8q-1 -4 -1 -7.5v-7.5v-14.5v-15.5 v-160v0v0z"/>
<glyph glyph-name="T" horiz-adv-x="457" unicode="S" d="M410 537l-34 -7q-5 20 -15 39.5t-24 35.5q-14 17 -33 26t-43 10q-25 0 -47.5 -7.5t-42.5 -22.5t-30 -35.5t-10 -47.5q0 -24 8.5 -44t24.5 -35q17 -16 36 -30.5t41 -28.5q4 -3 8 -5.5t8 -4.5q4 -3 8 -5.5t8 -4.5q26 -16 50.5 -35.5t46.5 -41.5t33 -51t11 -67 q0 -45 -16.5 -79.5t-49.5 -58.5t-70.5 -35.5t-78.5 -11.5q-20 0 -39.5 2.5t-39.5 7.5q-19 3 -38 9.5t-37 14.5q-1 8 -2 16.5t-2 17.5q-1 8 -2 16.5t-3 16.5q-1 8 -2.5 16.5t-2.5 17.5q-2 8 -3 16.5t-3 16.5l38 9q6 -29 16.5 -53.5t26.5 -45.5q15 -21 39 -31.5t55 -12.5 q26 0 50 8.5t46 24.5q21 17 32 39.5t11 50.5q0 27 -9 49t-27 38q-18 17 -39 33t-44 31q-3 2 -5.5 3.5t-4.5 2.5q-1 1 -2.5 2t-2.5 2q-2 0 -3 1l-2 2q-26 17 -50 35.5t-46 39.5t-32.5 49.5t-10.5 64.5q0 44 16 77t48 55t68.5 33t76.5 11q15 0 30 -1.5t30 -4.5q8 -1 15 -3 t15 -3q7 -2 14.5 -4t14.5 -4q2 -16 3.5 -31t4.5 -30l6 -30t7 -30v2v0z"/>
<glyph glyph-name="U" horiz-adv-x="569" unicode="T" d="M44 686h16q7 -6 14.5 -9.5t14.5 -5.5q8 -2 16 -3.5t16 -2.5q5 -1 9.5 -1.5t8.5 -0.5h4.5h4.5q2 -1 4.5 -1h4.5h10h11q5 -1 10 -1h10h10h11h10h10h20h20h21.5h20.5h9.5h9.5h9h9h18.5t19.5 1h18t18 1q9 0 18.5 0.5t19.5 1.5q11 1 22.5 2.5t22.5 3.5q5 1 10.5 2.5t11.5 2.5 q5 2 10.5 4t10.5 4l17 2q-5 -19 -9.5 -37t-9.5 -36l-4 -18l-4 -18q-2 -10 -3.5 -19t-3.5 -18l-33 2q1 2 1.5 5.5t1.5 7.5v4t1 4v3v4q0 17 -6 28t-17 15q-11 5 -24 7t-27 2l-112 2v-460l1 -66q0 -25 6 -38.5t18 -18.5q11 -4 26 -6t34 -2v-33h-31.5t-31.5 1t-31.5 1.5 t-31.5 0.5h-8h-7q-4 -1 -8 -1h-8h-8h-7q-4 -1 -8 -1h-8h-4h-4q-2 -1 -4 -1h-4h-7.5h-7.5h-8h-8h-7.5h-7.5v35q19 -2 33.5 0.5t24.5 7.5t15 18.5t6 34.5l2 68v460h-65q-27 -2 -47.5 -4.5t-35.5 -7.5q-15 -4 -28 -19t-25 -39q-1 -1 -1.5 -2l-0.5 -1q-1 -1 -1.5 -2t-0.5 -2 t-0.5 -2l-0.5 -1q-1 -1 -1.5 -2t-0.5 -2l-34 2q5 10 8.5 22t7.5 24t7.5 24t6.5 24q0 2 0.5 3.5t1.5 2.5q0 2 0.5 3.5t1.5 2.5q1 5 2 9.5t2 8.5q2 5 3.5 9.5t2.5 8.5v2v0z"/>
<glyph glyph-name="V" horiz-adv-x="729" unicode="U" d="M32 634v34q6 -2 12.5 -3t13.5 -1q7 -1 13.5 -1.5t13.5 -0.5q6 -1 12.5 -1h13.5h13.5h13.5h16h17q8 0 16 0.5t16 0.5t16 0.5t17 1.5q8 0 16 0.5t16 1.5v-32q-1 -2 -2 -2h-2h-1.5h-1.5h-2h-2q-1 -1 -2 -1h-2h-2h-1h-2h-2q-6 -1 -12 -1.5t-11 -2.5q-5 -1 -9.5 -4t-8.5 -7 t-7 -10t-5 -12q-1 -7 -2.5 -13.5t-1.5 -14.5v-4.5v-4.5v-4v-4v-24v-220q0 -54 7 -102t22 -90q14 -42 54 -63t105 -21q66 0 108 19.5t59 58.5t25.5 86.5t8.5 102.5v40v109l-1 76v1.5v2.5v3.5v2.5q-1 22 -3.5 40t-7.5 32q-4 14 -21 21.5t-46 7.5v36q12 -3 24 -4.5t24 -1.5 q12 -1 24 -1h24h12h13q6 0 12 0.5t12 0.5q12 0 24.5 1.5t25.5 2.5v-32q-23 -2 -37.5 -9.5t-19.5 -22.5t-7.5 -32.5t-2.5 -37.5v-11.5v-10.5v-11.5v-10.5q-1 -6 -1 -12v-11v-11.5v-10.5v-125q0 -71 -11.5 -130.5t-34.5 -107.5t-76.5 -71.5t-136.5 -23.5h-6h-5q-3 1 -5.5 1 h-5.5h-5.5h-4.5q-3 1 -5.5 1h-5.5q-28 3 -56 9.5t-54 16.5q-26 11 -46.5 30.5t-34.5 46.5q-6 10 -10 20.5t-7 22.5t-4.5 24t-2.5 25q-1 9 -1.5 18t-0.5 18v17.5v16.5v244v31q0 22 -2.5 41t-7.5 34t-21.5 22.5t-43.5 7.5v2v0z"/>
<glyph glyph-name="W" horiz-adv-x="587" unicode="V" d="M-27 634v34q8 -2 15 -3.5t13 -1.5q7 -1 14 -1.5t14 -0.5h28.5h28.5h28.5t29.5 1q15 0 30 1.5t30 2.5v-32q-1 -1 -2 -1.5l-1 -0.5q-1 -1 -2 -1h-2h-3.5h-3.5q-9 -1 -16.5 -4t-14.5 -7t-10.5 -10.5t-3.5 -15.5q0 -8 1 -16t4 -16q2 -7 5 -14.5t7 -14.5v-2v-2t0.5 -1.5 t1.5 -0.5l144 -370l140 353q1 1 2 4l2 6q1 2 1.5 3.5t1.5 3.5q1 1 1.5 3t1.5 3q2 4 3 7.5t3 7.5q1 4 2.5 7.5t2.5 7.5q3 8 4.5 16t1.5 16q0 10 -4 16.5t-12 10.5q-7 4 -16 6t-18 3h-1.5t-1.5 1h-1.5h-1.5h-1.5h-0.5h-1.5h-1.5v36q13 -3 26 -4.5t26 -1.5q13 -1 26 -1h26h12 h13q6 0 12 0.5t12 0.5q12 0 24.5 1.5t25.5 2.5v-32q-26 -2 -45 -11t-30 -26q-12 -18 -21 -37t-17 -40q-1 -2 -1.5 -4t-1.5 -4t-1.5 -4t-0.5 -4q-1 -2 -1.5 -4t-0.5 -3q-1 -2 -1.5 -3.5t-1.5 -3.5q-1 -1 -1.5 -3t-0.5 -3q-1 -2 -1.5 -3.5t-1.5 -3.5l-124 -302 q-3 -8 -5.5 -14.5t-4.5 -12.5q-2 -7 -4 -13.5t-4 -12.5q-1 -1 -1.5 -3t-0.5 -3q-1 -2 -1.5 -3.5t-1.5 -3.5l-2 -6l-2 -6q-2 -7 -4.5 -13.5t-4.5 -13.5q-3 -7 -5.5 -13.5t-4.5 -12.5q-5 -13 -10.5 -25t-11.5 -22h-16q-5 13 -10.5 27t-10.5 29l-6 14t-5 15q-3 7 -6 14.5 t-6 14.5q-2 5 -4 9.5t-4 8.5q-1 2 -2 4.5t-1 5.5q-1 2 -2 4.5t-2 5.5l-113 292q-3 4 -5.5 10t-4.5 12q-1 3 -2.5 6t-2.5 7q-2 3 -3 6l-2 6q-1 2 -1.5 4t-1.5 4l-2 4t-1 4l-2 4t-1 5l-2 4l-2 4q-1 4 -2.5 8t-3.5 8l-2 4t-1 4l-2 4l-2 4q-1 4 -2.5 7.5t-3.5 7.5 q-6 14 -13.5 25t-15.5 19t-21 13.5t-32 6.5l-2 2v0z"/>
<glyph glyph-name="X" horiz-adv-x="878" unicode="W" d="M-26 635v32q5 -2 8.5 -2.5t6.5 -0.5h2.5h3.5q1 -1 2.5 -1h2.5q9 -1 18.5 -1.5t19.5 -0.5q9 -1 18.5 -1h19.5h14h14q6 0 13 0.5t14 0.5t14 0.5t14 1.5q6 0 13 0.5t14 1.5v-30q-1 -2 -2.5 -2.5t-3.5 -0.5h-2h-2q-7 -1 -13.5 -3t-12.5 -5t-8.5 -8.5t-2.5 -13.5v-7.5t1 -6.5 v-3t1 -3q0 -2 0.5 -3.5t1.5 -3.5q2 -5 3.5 -10t3.5 -10q1 -2 2 -4.5t2 -4.5q1 -3 2 -5.5t2 -4.5q2 -4 3.5 -7.5t2.5 -6.5q1 -1 1.5 -2.5t1.5 -3.5q0 -1 0.5 -2.5t1.5 -3.5l148 -373l93 206l-88 199q-1 -1 -1.5 -0.5t-0.5 1.5v0.5v1.5q-1 0 -1 0.5v1.5q-1 0 -1.5 1t-0.5 2 v0.5v1.5q-1 0 -1 0.5v0.5q-7 14 -14.5 27.5t-15.5 25.5q-9 12 -22 19t-31 8v34q2 -1 3.5 -1.5t3.5 -0.5q1 -1 3 -1h3h3.5h3.5q1 -1 3 -1h3q10 -1 19.5 -1.5t19.5 -0.5q10 -1 19.5 -1h19.5h12h12t12 0.5t12 1.5h5h6h3.5t2.5 1h3.5h2.5h3.5t2.5 1h3.5h2.5h3.5t2.5 1h3.5h2.5 v-30q-8 -2 -15.5 -4t-13.5 -4q-7 -2 -10 -8t-3 -15q0 -7 1 -14.5t4 -15.5q2 -7 5 -14.5t6 -15.5v-1.5t1 -0.5q0 -1 0.5 -1.5t0.5 -1.5v-1.5t1 -0.5q0 -1 0.5 -1.5t0.5 -1.5l45 -101l48 109v-1h1v0.5v0.5v0.5t1 1.5v0.5v0.5q3 6 6 13l6 14q1 4 2 7.5t2 7.5q0 3 0.5 6.5 t0.5 7.5q0 10 -3.5 16.5t-9.5 9.5q-7 3 -14.5 4.5t-15.5 1.5v34q2 -2 4.5 -2.5t5.5 -0.5h3h3q1 -1 2.5 -1h2.5h2h3q1 -1 2.5 -1h2.5h5h6q5 -1 10 -1.5t10 -0.5h10.5h10.5h10.5h11.5h5.5t5.5 1h5h6q5 0 10.5 0.5t11.5 1.5q5 0 10.5 0.5t11.5 1.5v-30q-19 -2 -32.5 -6.5 t-21.5 -12.5q-9 -9 -16.5 -19.5t-13.5 -24.5q-1 -4 -2.5 -7.5t-3.5 -6.5l-2 -4t-1 -3q-1 -2 -2 -3.5t-2 -3.5l-74 -163l109 -244l134 311q2 4 4 9t5 10q2 5 4 10.5t4 10.5t4 10.5t5 11.5q2 5 4 10.5t4 11.5v1.5t1 1.5l0.5 0.5t0.5 1.5q0 2 0.5 3.5t1.5 2.5q2 5 4.5 10.5 t3.5 11.5q2 6 3 12l2 12q0 12 -4.5 20t-12.5 12q-8 5 -17 7.5t-19 3.5h-1.5t-0.5 1h-1.5h-0.5h-2h-2v34q6 -2 12 -3t12 -1q6 -1 12.5 -1.5t13.5 -0.5h6h7q3 -1 6 -1h6h6h7h6h6h24t24 1l24 2l24 2v-32q-1 -2 -1.5 -2h-0.5h-1.5h-0.5q-1 -1 -1.5 -1h-0.5h-1.5h-0.5 q-9 -1 -16 -2t-12 -3q-6 -2 -11 -6t-10 -9q-1 -1 -2 -2.5t-2 -3.5l-1.5 -1.5l-0.5 -0.5l-1.5 -1.5t-0.5 -1.5q-6 -8 -11 -17t-10 -20q-5 -10 -10 -20.5t-10 -21.5q-4 -9 -7.5 -18t-7.5 -17q-4 -9 -7 -16.5t-6 -14.5l-138 -317q-6 -13 -10.5 -24.5t-9.5 -22.5 q-4 -11 -8.5 -22.5t-9.5 -22.5v-1v0v0v0v-1v0q-1 -3 -2.5 -6.5t-2.5 -6.5q-2 -4 -3 -7.5t-3 -6.5q-3 -7 -5.5 -12.5t-4.5 -11.5h-11l-134 294l-132 -294h-11l-5 11l-206 512q-1 -1 -1.5 -0.5t-0.5 1.5v1.5v1.5q-1 3 -2.5 6.5t-3.5 7.5q-1 4 -2.5 7.5t-3.5 7.5 q-6 16 -14 30.5t-18 27.5q-10 14 -23.5 20.5t-32.5 6.5l-2 2v0z"/>
<glyph glyph-name="Y" horiz-adv-x="593" unicode="X" d="M6 636v32q15 -3 30 -4.5t30 -1.5q15 -1 30 -1h30h32t32 1q8 0 16 0.5t17 0.5q8 1 16 1.5t16 1.5v-30h-14q-1 -1 -2 -1.5l-1 -0.5h-2h-2h-2h-1q-1 -1 -2 -1h-2q-6 0 -11 -1t-10 -3q-4 -2 -7 -5t-5 -8v-0.5v-0.5l-1 -1v0v-1v0v-1.5v-0.5v-1.5v-0.5v-2.5v-3.5v-1.5t1 -0.5 v-1.5v-1.5q2 -4 3.5 -8.5t3.5 -9.5q2 -4 5 -8.5t6 -8.5q2 -2 3.5 -4.5t2.5 -4.5q1 -1 1.5 -2t1.5 -2q0 -1 0.5 -2t1.5 -2l87 -142l81 123q2 1 4 3.5t4 5.5t4.5 6.5t4.5 7.5q1 1 1.5 2t1.5 2q0 1 0.5 2t1.5 2q2 2 3.5 4.5t2.5 4.5q2 5 4.5 9.5t4.5 8.5q2 5 3 8.5t2 7.5 q0 9 -3.5 15.5t-10.5 9.5t-14 5t-15 3h-4h-4h-4h-4v34q13 -3 26 -4.5t26 -1.5q7 0 13.5 -0.5t13.5 -0.5h12.5h13.5h28.5t29.5 1q14 1 28.5 2t28.5 2v-30q-25 -2 -45 -9.5t-35 -22.5t-29 -31.5t-27 -34.5q-1 -1 -2 -2.5t-1 -3.5q-1 -1 -2 -2.5t-2 -2.5t-2 -2.5t-1 -2.5 q-1 -2 -2 -3l-2 -2l-107 -156l104 -170q4 -8 8.5 -15.5t8.5 -15.5q5 -8 10 -16.5t11 -16.5q11 -18 24.5 -34.5t28.5 -31.5t31.5 -23t35.5 -9v-29q-16 0 -31.5 0.5t-31.5 1.5h-16t-16 1h-16h-16h-12h-11q-6 -1 -11.5 -1h-11.5q-12 -1 -23.5 -1.5t-22.5 -0.5h-8h-8h-7.5h-7.5 v31q1 -2 1.5 -2h1.5h2h2h4.5h5.5h3.5t2.5 1h3.5h2.5q8 1 14.5 3t12.5 5t9.5 8.5t3.5 13.5q0 4 -2 10t-6 14l-8.5 17t-9.5 18q-1 2 -2 3.5t-2 2.5t-1.5 2t-0.5 2q-1 0 -1.5 1t-0.5 2q-4 7 -8 13.5t-8 12.5t-7.5 11t-5.5 9l-69 116l-117 -178l-1.5 -3t-0.5 -2q-1 -1 -1.5 -2 t-1.5 -2l-1.5 -1.5t-0.5 -1.5l-1.5 -1.5l-1.5 -1.5q-1 -2 -2.5 -4.5t-3.5 -4.5q-1 -3 -2.5 -5.5t-2.5 -4.5q-3 -4 -4.5 -9.5t-1.5 -10.5v1q0 -9 3 -15t9 -9q6 -4 13 -6t14 -3q4 -1 7.5 -1h7.5h3.5h3.5h3h3v-29h-26.5t-27.5 1q-13 1 -26.5 1.5t-27.5 0.5q-13 0 -26.5 -0.5 t-27.5 -1.5q-13 -1 -26.5 -1h-25.5l-2 31q24 1 45 10.5t37 26.5q17 17 31.5 36t27.5 39l4 6l4 6q1 2 3 5l4 6t3.5 6t3.5 6q1 2 3 5l4 6l96 148l-110 177q-2 2 -4.5 5t-4.5 7q-2 3 -4.5 6.5t-4.5 7.5q-11 18 -24 34t-27 31q-15 14 -33 21.5t-41 7.5v2v0z"/>
<glyph glyph-name="Z" horiz-adv-x="538" unicode="Y" d="M-30 636v32q8 -2 15.5 -3t13.5 -1q5 -1 12 -1.5t14 -0.5q7 -1 13.5 -1h13.5h14h14h15.5h14.5h8h8q3 0 7 0.5t8 0.5q8 0 15.5 0.5t14.5 1.5h8t8 1q3 0 7 0.5t8 0.5v-30q-2 -2 -4.5 -2.5t-4.5 -0.5h-2.5h-2.5q-2 -1 -3 -1h-2q-7 -1 -13 -3t-11 -5t-7.5 -7.5t-2.5 -12.5v1 q0 -8 1.5 -15.5t4.5 -13.5q3 -7 6 -13t7 -12q1 -1 1.5 -2t1.5 -2q0 -2 0.5 -3t1.5 -2t1.5 -2t1.5 -2q0 -2 0.5 -3t1.5 -2l110 -201l96 181q2 1 3.5 4l3.5 7t4.5 8.5t4.5 8.5l2 4l2 4q1 1 1.5 2l1.5 3q0 1 0.5 2.5t1.5 2.5l2 6t3 6q1 2 2 5l2 6q2 6 3 11.5t1 9.5v3 q-1 7 -4 12t-9 8t-12 4.5t-12 2.5h-2t-2 1h-2h-2h-2h-1h-2h-2v34q7 -2 13.5 -3t13.5 -1q7 -1 14 -1.5t14 -0.5q6 -1 13 -1h14h13.5h13.5h12h12q5 0 11 0.5t12 0.5q11 1 22.5 2t22.5 2v-30q-26 -2 -45.5 -10.5t-32.5 -22.5t-24 -30.5t-21 -36.5q-2 -4 -4 -7.5t-4 -7.5l-4 -8 l-4 -8l-121 -232v-109v-7v-6v-2.5v-2.5v-3v-3q0 -1 -0.5 -2.5t-0.5 -2.5v-3v-3v-2.5v-2.5v-3v-3q0 -22 3 -37.5t9 -26.5q6 -10 21 -15.5t38 -5.5l12 2v-35h-31.5t-30.5 1q-7 0 -15 0.5t-15 0.5q-8 1 -15.5 1h-15.5h-16h-16h-7.5h-7.5q-4 -1 -7.5 -1h-7.5q-8 -1 -16 -1.5 t-16 -0.5h-8h-7h-8h-8v35q1 -2 2 -2h2h2h2q14 0 26 3t23 7q11 5 17.5 15t7.5 26v4.5t1 5.5v4.5v4.5v10v10v41v112l-154 276q-9 16 -19.5 30t-21.5 26q-11 11 -26 18t-35 8l-2 2v0z"/>
<glyph glyph-name="bracketleft" horiz-adv-x="595" unicode="Z" d="M77 682h11q2 -4 4.5 -6t4.5 -4l5 -2.5t6 -2.5q5 -1 12 -2.5t14 -2.5q8 -1 16 -1.5t17 -0.5q5 -1 9.5 -1h8.5h4.5h5.5h4.5h4.5h15h15h14.5h14.5h15.5t14.5 1h15.5h14.5h7.5h7.5h6.5h7.5h7.5t7.5 1h7.5h7.5h22t23 1h22h22h22.5t22.5 1h22.5h22.5l6 -9q-9 -12 -17.5 -23.5 t-16.5 -22.5l-8 -12t-8 -11l-8 -12l-8 -12q-1 -2 -2.5 -4t-2.5 -4q-2 -3 -3 -5t-3 -4l-6 -8t-5 -8q-1 -1 -2 -3t-2 -3q-2 -2 -3 -3.5t-2 -3.5l-4 -6l-4 -6l-314 -460h155l3 -1.5t3 -0.5h2.5h2.5h3h3h2.5h2.5q44 0 78 4.5t58 13.5t44 38t35 78l31 -6q-1 -5 -2 -8.5t-1 -7.5 q-1 -4 -2 -7.5t-2 -6.5q-1 -7 -2.5 -14t-3.5 -14q-4 -14 -7 -28l-6 -28t-5.5 -28t-4.5 -27h-2.5h-3.5h-2h-1h-2h-2h-2h-1h-2h-2h-2.5h-3.5l-106 2l-97 1q-7 -2 -14.5 -2h-15.5h-14.5h-15.5h-8h-8q-4 -1 -7.5 -1h-7.5h-14.5h-15.5l-120 1q-2 -1 -4.5 -1h-4.5h-4h-4h-4.5h-4.5 h-4h-4l-8 13q5 7 10.5 15t11.5 16l12 16l12 16q3 4 6 7.5t6 7.5q2 4 5 8l6 8l6 8t6 9q2 4 5 8l6 8l326 482h-132h-49q-35 -2 -64.5 -6.5t-52.5 -12.5t-39.5 -32t-26.5 -64l-31 7l31 168v0v0z"/>
<glyph glyph-name="backslash" horiz-adv-x="286" unicode="[" d="M77 701h176v-33h-105v-335v-511h105v-33h-176v400v512v0v0z"/>
<glyph glyph-name="bracketright" horiz-adv-x="416" unicode="\" d="M61 714l183 -409l228 -511l-42 -19l-183 408l-227 512l41 19v0v0z"/>
<glyph glyph-name="asciicircum" horiz-adv-x="286" unicode="]" d="M209 -211h-176v33h105v334v512h-105v33h176v-401v-511v0v0z"/>
<glyph glyph-name="underscore" horiz-adv-x="501" unicode="^" d="M525 286h-39l-202 313l-209 -313h-100l277 415h6l267 -415v0v0z"/>
<glyph glyph-name="grave" horiz-adv-x="501" unicode="_" d="M22 -88h455v-43h-455v43v0v0z"/>
<glyph glyph-name="a" horiz-adv-x="501" unicode="`" d="M263 662l70 -172l-21 -10l-124 162v-1v0h-1v0v0v1q-1 0 -1 0.5v0.5q-1 2 -2 3.5t-2 2.5q0 1 -0.5 1.5t-0.5 1.5v0.5v1.5t0.5 2t1.5 2q2 1 4 1.5t5 0.5l71 2v0v0z"/>
<glyph glyph-name="b" horiz-adv-x="415" unicode="a" d="M389 52l12 -19q-10 -9 -20.5 -16t-21.5 -13q-12 -4 -24 -7t-24 -3q-15 0 -25 4t-15 13t-8 19.5t-4 23.5q-13 -13 -27 -25t-29 -22q-16 -8 -33 -13t-36 -5q-21 0 -37.5 6.5t-30.5 19.5q-13 14 -19.5 31t-6.5 37q0 21 7 36.5t21 25.5t30 18t33 14q2 1 4.5 2t5.5 2 q2 1 4.5 2t5.5 2l107 41v33v3.5v4.5q-1 3 -1 5.5v5.5q0 6 -0.5 12t-1.5 13q-1 13 -5.5 25t-10.5 23t-16.5 17t-25.5 6q-4 0 -7.5 -0.5t-8.5 -1.5q-2 -1 -4.5 -1.5t-4.5 -1.5q-3 -1 -5.5 -1.5t-4.5 -1.5q-9 -4 -17 -8.5t-16 -10.5q-7 -6 -11.5 -12.5t-4.5 -14.5 q-1 -12 -5 -19.5t-10 -11.5t-15 -6.5t-21 -3.5q-2 0 -3.5 0.5t-3.5 1.5q-1 2 -1.5 3.5t-0.5 3.5q0 11 2.5 20.5t7.5 16.5q5 8 12 14.5t16 12.5q5 3 9.5 6t9.5 7t10.5 8t11.5 8q5 3 9.5 6t8.5 6l10 6l10 6q6 3 12.5 6t13.5 6q7 2 13.5 3.5t12.5 1.5q32 0 53.5 -11t31.5 -33 t15 -46.5t6 -50.5v-2v-2v-2v-2v-11.5v-10.5q-1 -6 -1 -11.5v-10.5v-22v-22v-12v-11q-1 -6 -1 -11.5v-10.5v-22v-22v-4v-4v-4v-4q1 -9 3 -16.5t5 -15.5q3 -7 8.5 -10.5t13.5 -3.5q3 0 6 1l6 2q3 2 6 3.5t6 3.5q1 1 2 1.5t2 1.5q1 0 1.5 0.5l1.5 1.5l0.5 0.5t1.5 0.5v2v0z M258 198q-6 -4 -12.5 -6.5t-14.5 -4.5q-4 -1 -7.5 -2.5t-7.5 -2.5q-4 -2 -7.5 -3t-7.5 -3q-16 -6 -30.5 -14t-28.5 -17q-13 -10 -19.5 -22.5t-6.5 -29.5q0 -12 4 -22t12 -18q8 -9 18 -13t22 -4t23 3t21 10t19 14.5t18 15.5l0.5 0.5l1.5 1.5l1.5 1.5l1.5 1.5v114v0v0z"/>
<glyph glyph-name="c" horiz-adv-x="502" unicode="b" d="M146 366q4 1 8 3t8 5q2 2 4 3t4 3q2 1 4 2.5t4 2.5q14 8 27.5 14.5t27.5 12.5q14 5 30 8t34 3q35 0 63 -13.5t49 -39.5t34 -54.5t18 -60.5q0 -5 0.5 -10t1.5 -10v-5.5t1 -4.5v-5.5v-4.5q0 -48 -15.5 -87.5t-47.5 -71.5q-31 -32 -70.5 -47.5t-87.5 -15.5h-6.5h-6.5 q-4 1 -7 1h-6t-6 0.5t-6 0.5q-4 1 -7 1h-6q-7 1 -13.5 2t-12.5 1q-3 0 -6 0.5t-6 0.5h-7h-6h-8h-8t-8 -0.5t-8 -1.5q-4 0 -8.5 -0.5t-8.5 -1.5l-8 -2l-8 -2v123v386l-1 67q0 15 -2.5 27t-7.5 21q-5 8 -16.5 12.5t-28.5 4.5v28q16 2 31 7.5t29 12.5t28.5 14.5t28.5 16.5 l19 -7q-3 -27 -5 -52.5t-3 -51.5q-1 -25 -1.5 -50.5t-0.5 -51.5v-133v0v0zM146 337v-145v-3v-1v0v0v-8.5v-9.5v-4t1 -4v-5v-4q2 -24 6.5 -45t13.5 -41q9 -19 28.5 -29t49.5 -10q36 0 63 13t46 38q18 26 27.5 55.5t9.5 62.5v3.5v2.5v2v2v1v2q-2 29 -12 56t-28 51t-43.5 36.5 t-57.5 12.5q-14 0 -27.5 -2t-26.5 -7q-13 -4 -25.5 -9.5t-24.5 -12.5v2v0z"/>
<glyph glyph-name="d" horiz-adv-x="398" unicode="c" d="M368 89l17 -18q-14 -19 -31.5 -33t-38.5 -25q-21 -10 -42.5 -15t-44.5 -5q-46 0 -82 15.5t-60 46.5q-25 32 -37 70t-12 81q0 45 15 84t45 70q30 32 68 47.5t84 15.5q5 0 11.5 -0.5t14.5 -2.5q8 -1 16 -3l16 -4q14 -4 26 -9.5t24 -12.5q11 -7 17 -15t6 -17q-1 -4 -3 -8.5 t-7 -9.5q-4 -4 -8.5 -7t-9.5 -5q-1 -1 -2.5 -1.5t-3.5 -0.5h-1.5h-0.5h-1.5h-1.5l-1 2q-2 -1 -4 -1t-4 2q-3 1 -5 2.5t-4 4.5q-4 5 -9 10.5t-10 11.5q-6 6 -13 11.5t-15 10.5q-7 5 -16 7.5t-20 2.5q-28 0 -50.5 -11t-39.5 -33t-26.5 -46t-11.5 -50q0 -1 -0.5 -2l-0.5 -1v-2 v-2v-2.5v-3.5v-10t1 -10q0 -5 0.5 -10.5t1.5 -10.5q5 -29 15.5 -55.5t28.5 -50.5t43 -36t58 -12q16 0 30.5 3t27.5 9q14 6 26.5 14t24.5 18v2v0z"/>
<glyph glyph-name="e" horiz-adv-x="515" unicode="d" d="M472 41v-29l-30 -4l-30 -4l-30 -6t-29 -8l-14 17v3v5v3t1 3q0 1 0.5 2.5t0.5 2.5v0.5v1.5v1.5v1.5v3.5t1 3.5v3v3v3.5t1 3.5v3v3q-16 -13 -32.5 -24t-33.5 -21q-18 -10 -37 -14t-39 -4q-36 0 -63.5 12.5t-47.5 38.5q-19 26 -31.5 55t-17.5 60q-1 3 -1.5 6t-0.5 6 q-1 2 -1 5v6q-1 5 -1 10.5v11.5q0 44 14.5 82.5t44.5 70.5q29 32 66.5 48.5t82.5 16.5q7 0 13.5 -0.5t13.5 -1.5q6 -1 12.5 -2.5t13.5 -3.5q14 -4 26 -9t24 -12v114l-1 61q0 16 -2.5 28t-7.5 20q-4 8 -15.5 12t-29.5 4v28q16 2 31 7.5t29 12.5q14 8 28.5 15.5t27.5 16.5 l19 -8q-3 -26 -4.5 -51t-2.5 -49q-1 -25 -1.5 -49.5t-0.5 -49.5v-302v-58v-21.5v-19.5q0 -10 1 -18t2 -15q2 -12 6.5 -19t11.5 -9t15 -3.5t18 -1.5v2v0zM347 100v3v5v3v3q0 1 0.5 2.5t0.5 2.5v4.5v5.5v3v3v2.5v2.5v9.5v8.5v9.5v9.5v15.5v14.5q-1 8 -1 15.5v14.5 q0 15 -0.5 30.5t-1.5 31.5q-1 21 -9.5 37.5t-23.5 28.5q-15 11 -33 17t-38 6q-34 0 -59 -12.5t-42 -38.5q-16 -25 -24.5 -53.5t-8.5 -59.5v-10t1 -10v-4.5t1 -4.5q0 -3 0.5 -5.5t0.5 -4.5q5 -26 15 -50t26 -45q17 -22 39.5 -32.5t51.5 -10.5q16 0 30.5 3.5t27.5 10.5 q14 7 25.5 16t21.5 21v2v0z"/>
<glyph glyph-name="f" horiz-adv-x="386" unicode="e" d="M352 84l14 -20q-15 -18 -32.5 -31.5t-37.5 -22.5q-20 -8 -41 -12.5t-43 -4.5q-37 0 -67.5 14t-53.5 42q-23 29 -36.5 60.5t-16.5 65.5v3v3q-1 1 -1 2.5v2.5v6v6q0 44 13 83t39 73q26 35 63 52t83 17q26 0 48.5 -9t41.5 -27t28.5 -39.5t9.5 -47.5q0 -13 -2 -22t-7 -13 q-4 -4 -12.5 -6t-20.5 -2l-216 2q-1 -5 -1.5 -9.5t-0.5 -8.5q-1 -4 -1 -7.5v-7.5q0 -34 10 -64t31 -57q20 -27 48.5 -40.5t64.5 -13.5q14 0 26 2t24 6q12 5 23.5 10.5t22.5 12.5v2v0zM112 293h144q1 -2 1.5 -2h1.5h2h2q6 0 11.5 1t10.5 3t7.5 7t2.5 13q0 15 -5.5 28 t-16.5 23q-10 10 -23 15t-28 5q-22 0 -40 -7.5t-31 -21.5t-22.5 -30.5t-16.5 -35.5v2v0z"/>
<glyph glyph-name="g" horiz-adv-x="316" unicode="f" d="M178 401h138l-15 -41h-123v-196v-9.5v-8.5v-8v-8q-1 -4 -1 -8v-8v-8v-8q0 -18 2.5 -30.5t6.5 -20.5q5 -8 17 -12t31 -4l23 2v-33h-13.5h-13.5t-13.5 0.5t-12.5 1.5h-14h-13h-6.5t-6.5 1h-7.5h-6.5h-10h-10q-5 -1 -10 -1h-10q-10 -1 -20 -1.5t-20 -0.5h-3h-3h-3.5h-3.5h-3 h-3h-3.5h-3.5v33q20 -2 33 1.5t19 10.5q6 8 9 21t3 32v8v8v8v8q-1 4 -1 8v8v8v8v198h-63l9 34q15 1 26 4.5t17 8.5t10 15t5 26q5 53 21 97.5t43 81.5q27 38 69 56.5t100 18.5h3.5h3.5q2 -1 4 -1h5q5 -1 10.5 -1.5t10.5 -2.5q8 -2 16 -5t15 -8q7 -4 10.5 -9.5t3.5 -12.5v-2 v-2v-0.5v-0.5q-1 -1 -1 -1.5v-0.5q-1 -6 -4.5 -11.5t-8.5 -10.5t-10.5 -8.5t-11.5 -5.5q-1 -1 -2.5 -1.5t-3.5 -0.5h-2.5h-3.5t-4 0.5t-4 1.5q-3 1 -5 2.5t-4 3.5l-8.5 8.5t-9.5 8.5l-6 4t-5 5l-6 4l-6 4q-6 4 -13 6t-15 2q-27 0 -46.5 -11t-31.5 -34q-12 -22 -19.5 -46.5 t-10.5 -51.5q-2 -13 -3.5 -26.5t-1.5 -27.5q-1 -13 -1 -25v-22v-22v0v0z"/>
<glyph glyph-name="h" horiz-adv-x="437" unicode="g" d="M427 390v-35l-95 1q4 -10 7 -18.5t5 -16.5t3.5 -16.5t1.5 -16.5q0 -34 -12.5 -58.5t-37.5 -41.5q-25 -16 -52 -24.5t-56 -8.5h-1.5h-0.5v0v0h-1v0l-2 -2t-2 -1l-2 -2l-2 -2q-2 -1 -4 -2.5t-4 -3.5q-6 -4 -10.5 -9.5t-9.5 -10.5q-4 -6 -6.5 -12t-2.5 -12q0 -8 3 -13.5 t9 -8.5t12.5 -5t13.5 -3q3 -1 6 -1h6h3h3h2.5h2.5l49 2q1 -2 2.5 -2h2.5h1.5h1.5h0.5h1.5h4.5h5.5q2 -1 5 -1h6h10.5h11.5q21 -1 40 -6.5t37 -13.5t27 -25t9 -42q0 -36 -14.5 -66.5t-43.5 -54.5t-60.5 -40.5t-66.5 -25.5q-8 -2 -16.5 -3.5t-16.5 -2.5t-15.5 -1.5t-15.5 -0.5 q-29 0 -54.5 8t-46.5 25q-21 16 -31.5 40t-10.5 55q0 12 3.5 23t10.5 21q8 10 15.5 19.5t16.5 18.5l3.5 3.5t3.5 2.5l3 3l3 3l3.5 3.5l3.5 3.5l3 3t3 4q-7 5 -12.5 11t-10.5 13q-4 7 -6.5 14.5t-2.5 15.5v2v2v1v2q0 2 0.5 3.5t1.5 2.5l77 75q-21 7 -38 18.5t-31 26.5 q-13 15 -19.5 35t-6.5 44q0 32 12 57t37 43q24 18 51 27t56 10v0h1v0v0h0.5h1.5h3.5h2.5q2 -1 3.5 -1h2.5h3.5h2.5q2 -1 3.5 -1h2.5q11 -1 20.5 -4t19.5 -7t19 -9.5t16 -13.5l118 3v0v0zM123 9q-6 -8 -10.5 -16t-8.5 -16t-6.5 -17t-3.5 -19q0 -27 10 -47.5t31 -33.5 q21 -14 43.5 -21t47.5 -7h4.5h4.5q2 1 4.5 1h5.5q2 0 4.5 0.5t5.5 0.5q2 1 4.5 1.5t4.5 0.5q17 4 32.5 11t29.5 18q14 10 21.5 24.5t8.5 32.5q0 25 -10.5 40.5t-30.5 22.5t-42 11t-46 4h-8h-8h-4h-3h-3.5h-3.5q-11 0 -21.5 0.5t-19.5 1.5q-10 0 -18 1.5t-15 3.5v2v0z M276 280v3v4q-1 2 -1 4.5v4.5t-0.5 4.5t-0.5 5.5q-1 2 -1 4.5v4.5q-3 15 -9 28.5t-14 26.5q-8 12 -20 19t-29 8q-19 0 -33 -7t-24 -21t-15 -29t-6 -32v-2v-2v-2v-2v-7.5v-7.5t1 -8l2 -8q2 -15 7.5 -29t14.5 -27t22 -20t30 -7q19 0 33 7t24 21q9 14 14 30t5 34v2v0z"/>
<glyph glyph-name="i" horiz-adv-x="535" unicode="h" d="M170 354q3 1 7 3t8 5l8 6l8 6q13 9 26.5 17.5t28.5 15.5q15 8 30 12t30 4q41 0 66.5 -12.5t37.5 -36.5t18 -53t6 -63v-10v-10q-1 -5 -1 -10v-10v-19.5v-19.5v-20v-20v-19.5v-19.5v-4v-4v-2v-1v-2v-2q0 -7 1 -13.5t2 -12.5t3 -10.5t5 -6.5q2 -3 5 -4.5l7 -3.5 q3 -1 6.5 -1.5t7.5 -0.5q2 -1 4.5 -1h5.5h4.5h4.5l3 2v-33h-25.5t-24.5 1q-6 0 -12 0.5t-12 0.5q-7 1 -13 1h-12q-13 0 -25.5 -0.5t-24.5 -1.5q-6 0 -12 -0.5t-12 -0.5h-13h-12v33q20 -2 33.5 1t20.5 9t10.5 19t3.5 33v4.5v5.5v4.5v5.5q0 1 -0.5 2t-0.5 2v1v2v2v2v1v2v14v14 v7.5v7.5q0 3 0.5 6.5t0.5 7.5v14v14v7.5v7.5v6.5v7.5v4v4q-1 2 -1 4v4v4.5v4.5q-1 2 -1 4.5v4.5q-1 17 -6.5 33t-13.5 31q-9 15 -24 22.5t-36 7.5q-17 0 -33.5 -3.5t-31.5 -11.5q-15 -7 -29 -17t-26 -21v-154v-9.5v-8.5v-8v-8q-1 -4 -1 -8v-8v-8v-8q0 -18 2.5 -30.5 t6.5 -20.5q5 -8 17 -12t31 -4l6 2v-33h-12h-12t-12 0.5t-12 1.5h-13h-12h-6t-6 1h-6h-6h-10h-9q-5 -1 -9.5 -1h-9.5q-10 -1 -19.5 -1.5t-18.5 -0.5h-7.5h-6.5h-6h-6v33q21 -2 35 1.5t20 10.5t9 20.5t3 34.5v64v342l-1 62q0 16 -3 28.5t-8 20.5t-16.5 12t-29.5 4v28 q16 2 31.5 7.5t30.5 12.5t29.5 14.5t28.5 16.5l17 -7q-1 -14 -2.5 -27t-2.5 -25q-1 -13 -1.5 -25t-0.5 -24q-1 -13 -1.5 -25.5t-0.5 -24.5v-25.5v-24.5v-150v0v0z"/>
<glyph glyph-name="j" horiz-adv-x="276" unicode="i" d="M48 354l1 26q16 3 31.5 8t30.5 12t29.5 14.5t28.5 16.5l18 -6q-1 -8 -2 -15.5t-2 -14.5l-2 -14t-1 -14q-1 -7 -1.5 -14.5t-0.5 -14.5v-14v-14l1 -85v-18v-16v-14.5v-15.5q-1 -8 -1 -16v-16v-8v-7v-8v-8q0 -18 2.5 -30.5t6.5 -20.5q5 -8 17 -12t31 -4l5 2v-33h-25t-24 1 t-24 1.5t-24 0.5h-6.5h-6.5q-4 -1 -7 -1h-6h-13h-12q-7 -1 -13.5 -1.5t-12.5 -0.5h-13.5h-12.5v33q21 -2 35 1.5t20 10.5t9 20.5t3 34.5v22.5v23.5v23v24v11.5v11.5q-1 5 -1 11v12v22.5v23.5q0 17 -3 30t-8 21t-17 12t-30 4v2v0zM182 648q0 -11 -3.5 -19.5t-11.5 -14.5 q-7 -7 -15.5 -10t-17.5 -3t-17 3t-15 10q-7 6 -10.5 14t-3.5 17q0 10 3.5 18.5t10.5 15.5q8 8 16 11.5t18 3.5t18 -3.5t15 -11.5q6 -7 9.5 -15.5t3.5 -17.5v2v0z"/>
<glyph glyph-name="k" horiz-adv-x="240" unicode="j" d="M21 -184l-14 24q10 7 18.5 13t15.5 12t13 12t11 12q11 13 18 27.5t9 29.5t3.5 34.5t2.5 41.5v2t1 2v2.5v2.5v3v3v2.5v2.5v9.5v8.5v4.5t1 5.5v4.5v5.5v4.5v5.5v4.5v4.5v4.5v5.5v4.5v4.5v114l-1 56q0 15 -2.5 27t-7.5 20t-16.5 12.5t-29.5 4.5l1 28q16 4 31 9t29 12 q14 6 28.5 14t28.5 17l17 -7q-2 -16 -3.5 -30t-2.5 -28t-1.5 -28.5t-0.5 -28.5l1 -78v-148q0 -44 -2.5 -75.5t-7.5 -53.5q-4 -23 -17.5 -43t-34.5 -38q-8 -7 -17.5 -14t-20.5 -14q-10 -7 -23 -14.5t-27 -15.5v0v0zM177 649q0 -11 -3.5 -19.5t-10.5 -15.5t-15.5 -10t-18.5 -3 q-9 0 -17 3t-15 10q-7 6 -10 14t-3 18t3.5 18.5t10.5 15.5t15 10.5t18 3.5t18 -3.5t15 -11.5q6 -7 9.5 -15t3.5 -17v2v0z"/>
<glyph glyph-name="l" horiz-adv-x="484" unicode="k" d="M233 33v-33h-6h-6h-7h-6h-6t-6 1q-4 0 -7 0.5t-6 0.5h-13.5h-12.5h-6t-6 1h-6h-6h-6h-6q-4 -1 -7 -1h-6h-12h-12q-3 0 -6 -0.5t-6 -0.5q-4 -1 -7 -1h-6h-12h-12v33q20 -2 33.5 1t19.5 10t9.5 20.5t3.5 33.5v8v8v8v8q-1 4 -1 8v8v8v8v344l-1 62q0 16 -2.5 28t-7.5 20 t-16.5 12.5t-28.5 4.5v28q16 2 31 7.5t29 12.5t28.5 14.5t28.5 16.5l19 -7q-1 -14 -2.5 -27t-2.5 -25q-1 -13 -2 -25t-1 -24q-1 -13 -1.5 -25.5t-0.5 -24.5v-25.5v-24.5v-340v-62q0 -19 2 -32.5t6 -21.5q4 -9 16 -13t32 -4l7 2v0v0zM271 385v33q5 -2 10.5 -3t11.5 -1h12h12 q5 -1 10.5 -1h11.5h6h6h5h6h22.5t22.5 1q11 0 22.5 0.5t22.5 1.5v-31q-28 -2 -51.5 -10t-43.5 -23t-39.5 -31.5t-37.5 -34.5q-1 -1 -1.5 -2t-1.5 -2t-2 -1.5t-1 -1.5l-6 -6l-6 -6l-2.5 -2.5l-2.5 -2.5l-3 -3t-3 -2l100 -131q2 -4 3.5 -6.5t3.5 -4.5q1 -3 3 -5.5t3 -4.5 q3 -4 6.5 -8.5t7.5 -8.5q8 -12 17.5 -22t19.5 -18q11 -8 24.5 -12.5t31.5 -6.5v-29h-8h-8h-4h-3h-4h-4h-4t-4 1h-4h-4h-7.5h-7.5h-8h-8h-4h-4q-2 -1 -4 -1h-4h-4h-4h-4h-4h-8h-8q-19 29 -38.5 58.5t-40.5 57.5q-21 29 -42.5 56.5t-43.5 55.5l85 87q2 1 3.5 2.5t3.5 2.5 q2 2 4.5 4t4.5 4t3 3.5t3 2.5q1 2 2.5 3.5l2.5 2.5q3 3 5.5 6t4.5 6q0 1 0.5 2t1.5 2l0.5 1t0.5 2t0.5 2t0.5 2q1 0 1 1v2v3q0 2 -1.5 5t-4.5 4q-1 1 -3 1.5t-3 1.5q-2 1 -3.5 1.5t-3.5 0.5h-2.5h-3.5h-2.5h-2.5l-6 2v0v0z"/>
<glyph glyph-name="m" horiz-adv-x="267" unicode="l" d="M234 33v-33h-24t-24 1t-24 1.5t-24 0.5q-13 0 -25.5 -0.5t-25.5 -1.5t-25.5 -1h-25.5v33q21 -2 34 2t19 11q5 8 8 21.5t3 32.5v64v343l-2 61q0 14 -2.5 26t-7.5 21q-4 9 -15.5 13.5t-28.5 4.5l-1 28q16 2 31 7.5t30 12.5q14 7 28.5 14.5t27.5 16.5l19 -7q-3 -26 -5 -51 t-3 -50t-1 -49.5v-49.5v-341v-10.5v-9.5v-8v-8q0 -2 -0.5 -4t-0.5 -4v-5v-4v-4v-4v-5v-4q0 -17 2.5 -29t6.5 -20q5 -7 16.5 -10.5t30.5 -3.5l9 2v0v0z"/>
<glyph glyph-name="n" horiz-adv-x="797" unicode="m" d="M432 354q3 1 6 3t7 5q3 2 6.5 4.5t7.5 5.5q11 8 22 14.5t23 13.5t24 12t25 8q3 0 6 0.5t7 1.5h3.5t3.5 1h3h3q38 0 63.5 -12t38.5 -36t19.5 -52t6.5 -61v-20.5v-21.5v-20v-20q0 -5 -0.5 -10t-0.5 -10v-11v-10v-10v-10v-11v-10v-2.5v-3.5v-1.5v-0.5v-1.5v-1.5q0 -7 1 -14 t2 -13t3 -10.5t5 -7.5q2 -3 5 -4.5t7 -2.5q3 -1 6.5 -2t7.5 -1q2 0 3 -0.5t3 -0.5h2.5h2.5h4.5h4.5l4 2v-33h-6h-6h-6h-5q-9 0 -18 0.5t-18 1.5h-8.5t-9.5 1h-8.5h-9.5h-6h-6q-4 -1 -7 -1h-6h-6h-6q-4 -1 -7 -1h-6h-3h-3q-2 -1 -3.5 -1h-3.5h-6h-6h-3h-3h-3.5h-3.5h-6h-6v33 q24 -2 38 2t18 11q4 8 6 21t2 31v16.5v16.5v16.5v17.5q-1 8 -1 16v17v16.5v16.5v3.5v3.5v3v3v6.5v7.5q-1 21 -5 40t-12 37q-7 18 -24.5 27t-44.5 9q-16 0 -30.5 -3.5t-28.5 -11.5q-13 -7 -26 -15t-25 -17v-4.5v-4.5v-2t1 -2v-2v-2v-4.5v-4.5v-4v-4v-188v-6v-4v-2v-1v-2v-2 q0 -7 1 -13.5t2 -12.5t3 -10.5t5 -6.5q2 -3 5 -4.5l7 -3.5q3 -1 6.5 -1.5t7.5 -0.5q2 -1 4.5 -1h5.5h4.5h4.5l7 2v-33h-6h-6h-3h-3h-3.5h-3.5h-6h-6h-2.5t-3.5 1h-2.5h-3.5h-6t-6 1h-7h-6h-6t-6 1h-6h-6h-6h-6q-3 -1 -6 -1h-6h-12h-11q-6 -1 -12 -1.5t-12 -0.5h-12h-12v33 q19 -2 31 1.5t18 10.5q5 8 8 20t3 29v18.5v19.5v19.5v19.5q-1 9 -1 18.5v19.5v19.5v19.5q0 24 -3.5 45t-10.5 40t-25 28.5t-47 9.5q-15 0 -28.5 -3.5t-26.5 -9.5q-13 -7 -25.5 -14.5t-23.5 -15.5v-164v-9.5v-8.5v-8v-8q-1 -4 -1 -8v-8v-8v-8q0 -18 2.5 -30.5t6.5 -20.5 q5 -8 17 -12t31 -4l4 2v-33h-25.5t-24.5 1q-6 0 -12 0.5t-12 0.5q-7 1 -13 1h-12h-6h-6q-4 -1 -7 -1h-6h-6h-6q-4 -1 -7 -1h-6h-3h-3q-2 -1 -3.5 -1h-3.5h-6h-6h-3h-3h-3.5h-3.5h-6h-6v33q22 -2 36 1t20 10t9 21t3 35v23.5v23.5q-1 11 -1 22.5v23.5v23.5v23.5q-1 11 -1 22.5 v23.5q0 17 -2 29t-7 20q-4 8 -15.5 12.5t-29.5 4.5v29q15 2 29.5 7.5t28.5 12.5t28 14.5t27 15.5l20 -7q-1 -5 -1.5 -9t-0.5 -8q-1 -4 -1.5 -8t-0.5 -7v-4v-4q-1 -2 -1 -4v-4q-1 -4 -1 -7.5v-7.5q3 2 6.5 4.5t7.5 5.5q4 2 8 4.5t8 5.5q8 5 15.5 9.5t15.5 8.5q8 5 16 8.5 t17 6.5q5 2 10 3.5t11 2.5q5 2 10.5 2.5t10.5 0.5q19 0 36.5 -4.5t33.5 -13.5t28 -22t19 -31v2v0z"/>
<glyph glyph-name="o" horiz-adv-x="543" unicode="n" d="M179 319v-155v-5.5v-4.5q-1 -2 -1 -4v-4v-7.5v-7.5v-8v-8v-7.5v-7.5q0 -18 2 -31t6 -21q4 -9 16 -13t32 -4l8 2v-33h-3h-3h-3.5h-3.5h-6h-6q-10 0 -20 0.5t-19 1.5h-10t-9 1h-9.5h-9.5h-6h-6q-4 -1 -7 -1h-6h-6h-6h-7h-6q-7 -1 -13.5 -1.5t-12.5 -0.5h-12h-12v33 q20 -2 33.5 1t20.5 10q7 6 10.5 19.5t3.5 34.5v22.5v23.5v12v12q-1 6 -1 12v12v11.5v11.5q-1 5 -1 11v12v12v12v11v12q0 18 -2 31.5t-7 20.5q-4 8 -16 11.5t-30 3.5v28q15 4 29.5 9.5t28.5 12.5q14 6 28.5 13.5t28.5 15.5l19 -7q-1 -10 -2 -19l-2 -18t-1.5 -17.5t-0.5 -16.5 q2 2 5 4l6 4l6 4l6 4q14 10 29 19t31 18q17 8 33.5 12.5t34.5 4.5q35 0 58.5 -11.5t36.5 -34.5q14 -22 20.5 -48.5t6.5 -56.5v-22.5v-22.5v-22v-22q-1 -11 -1 -22.5v-22.5v-22v-22v-2v-2v-2v-1q0 -7 0.5 -14.5t1.5 -13.5q2 -6 4 -10.5t5 -6.5q3 -3 6.5 -5t7.5 -3 q2 -1 4 -1.5t5 -0.5q2 -1 4 -1h4h4h4h4h4l2 2v-33h-3h-3h-3.5h-3.5h-6h-6h-7h-6h-2.5t-3.5 1h-2.5h-3.5h-6.5t-6.5 1h-7h-6h-6t-6 1h-7h-6h-6h-6q-3 -1 -6 -1h-6h-6h-6q-3 -1 -6 -1h-6h-3.5h-3.5q-1 -1 -2.5 -1h-3.5h-6h-6h-6h-6h-6h-6v33q22 -2 35.5 1.5t19.5 10.5 q6 8 9 21.5t3 33.5v16.5v17.5v9v9v8.5v8.5q-1 8 -1 16.5v17.5v9v9v8.5v8.5v4v4q-1 2 -1 4v4v4v5v4v4q-2 19 -7.5 36t-13.5 33q-9 15 -24 23t-38 8q-17 0 -33 -4t-30 -12t-27.5 -17.5t-25.5 -20.5v2v0z"/>
<glyph glyph-name="p" horiz-adv-x="509" unicode="o" d="M472 207q0 -47 -16.5 -85.5t-49.5 -68.5q-33 -31 -71.5 -45.5t-82.5 -14.5q-48 0 -86.5 15t-68.5 46t-45 70t-15 86t16.5 85.5t49.5 69.5t72 46.5t85 15.5q47 0 85.5 -16.5t67.5 -48.5q29 -33 44 -72t15 -85v2v0zM394 198v3.5v5.5q-1 2 -1 5v6t-0.5 6t-0.5 6q-1 2 -1.5 5 t-0.5 6q-5 28 -16.5 53.5t-28.5 48.5t-41 35t-54 12q-32 0 -56.5 -12.5t-41.5 -36.5q-17 -25 -26 -51.5t-9 -55.5v-1.5v-0.5v0v0v-1v0v-14.5t1 -15.5q1 -7 2.5 -14.5t2.5 -15.5q5 -27 16 -51.5t27 -47.5q16 -22 39 -33.5t54 -11.5q35 0 60.5 13t41.5 39t24 54.5t9 59.5v0v1 v0v0v0.5v1.5v2v0z"/>
<glyph glyph-name="q" horiz-adv-x="521" unicode="p" d="M172 17v-140q0 -18 2.5 -31t6.5 -21q5 -8 16.5 -12.5t30.5 -4.5h8v-33q-7 1 -13.5 1.5t-12.5 0.5q-6 1 -12 1.5t-12 0.5h-6.5h-6.5q-4 1 -7 1h-6h-6h-6h-7h-6h-13.5h-12.5h-6t-6 -1h-6h-6q-7 0 -13.5 -0.5t-12.5 -1.5h-6t-6 -1q-4 0 -7 -0.5t-6 -0.5v33q19 0 32 2.5 t20 7.5q8 5 11.5 18.5t3.5 34.5v8.5v9.5v8v8q0 2 -0.5 4t-0.5 4v5v4v4v4v5v4v286l-1 63q0 14 -2 26t-5 20q-4 8 -14 12t-27 5h-0.5t-0.5 1h-1.5h-0.5h-1.5h-1.5v28q15 3 29.5 8.5t28.5 12.5t28.5 14.5t27.5 15.5l20 -7q-1 -5 -1.5 -9t-0.5 -7q-1 -4 -1.5 -7.5t-0.5 -6.5 q-1 -4 -1.5 -7.5t-0.5 -6.5v-4v-3q-1 -2 -1 -3.5v-3.5v0l1 1h0.5h0.5l0.5 0.5l1.5 1.5q15 10 30 19t31 18q15 8 32.5 12.5t36.5 4.5q42 0 74.5 -16t55.5 -48q23 -31 35 -66.5t12 -74.5v-2v-2v-1.5v-0.5v-1.5v-1.5q-1 -40 -16 -77.5t-43 -71.5t-63.5 -50.5t-79.5 -16.5 q-14 0 -28 1.5t-28 4.5q-13 2 -26.5 6t-26.5 10v2v0zM172 75q7 -11 16 -18.5t19 -12.5q11 -5 21.5 -8.5t21.5 -5.5q2 0 3.5 -0.5t3.5 -0.5q1 -1 3 -1h3h6h6q34 0 59.5 12.5t41.5 37.5q17 26 26 53.5t10 58.5v1.5v1.5v1.5v1.5q0 33 -9 63t-27 56t-45.5 39t-64.5 13h-4h-3 q-2 -1 -3.5 -1h-3.5h-3t-3 -1q-2 0 -3.5 -0.5t-3.5 -0.5q-9 -1 -18 -4t-17 -6q-9 -4 -16.5 -8t-15.5 -9v-262v0v0z"/>
<glyph glyph-name="r" horiz-adv-x="488" unicode="q" d="M361 376l50 51l16 -9q-1 -14 -2.5 -27t-2.5 -25q-1 -13 -1.5 -25t-0.5 -24q-1 -13 -1.5 -25.5t-0.5 -24.5v-25.5v-24.5v-278v-4v-4q-1 -1 -1 -3v-4v-8v-8v-7.5v-7.5v-8v-8q0 -20 2.5 -33.5t6.5 -20.5q5 -8 16.5 -11.5t30.5 -3.5h8v-33h-3h-3q-2 1 -3.5 1h-3.5h-2.5h-3.5 q-1 1 -2.5 1h-3.5q-4 0 -9 0.5t-9 0.5q-5 1 -9.5 1h-9.5q-4 0 -9 0.5t-9 0.5h-9.5h-9.5h-26t-26 -1t-25.5 -2t-25.5 -2v33q22 0 36 3.5t20 9.5q6 7 9 21t3 35v8v8v7.5v7.5v4v4q-1 2 -1 4v4v7.5v7.5v129q-14 -17 -30.5 -30t-34.5 -24t-38 -16t-42 -5q-35 0 -62.5 12.5 t-47.5 38.5t-32.5 55t-17.5 61q-1 5 -2 10.5t-1 10.5q-1 5 -1 10.5v11.5q0 44 14.5 82.5t43.5 71.5t66 49.5t83 16.5q17 0 32.5 -3.5t30.5 -9.5q15 -7 28.5 -16t25.5 -20v2v0zM346 104v145q0 25 -4.5 49t-13.5 46t-30 33t-54 11q-34 0 -59 -12.5t-42 -37.5 q-16 -25 -24.5 -53t-8.5 -59v-6v-5q0 -3 0.5 -6t0.5 -6q0 -6 1 -11.5t2 -10.5q5 -25 15 -48t26 -44q15 -21 37 -31.5t50 -10.5h4.5h5.5h3t3 1q1 0 2.5 0.5t2.5 0.5q12 2 24 6.5t23 11.5t20 16t16 19v2v0z"/>
<glyph glyph-name="s" horiz-adv-x="348" unicode="r" d="M52 356v24q15 4 29.5 9.5t28.5 12.5q7 3 14 6.5t14 6.5q6 4 13 8l14 8l13 -2v-90q1 0 2 1.5t2 2.5q2 2 3.5 4t2.5 4q9 14 20.5 26t24.5 23t28.5 17t33.5 6h1.5h1.5q1 -1 1.5 -1h1.5h4h4l4 -2t5 -2l4 -2t4 -3q4 -3 6 -6.5t2 -8.5v-2.5v-3.5q-1 -1 -1 -2.5v-3.5v-3t-1 -3 q0 -2 -0.5 -3.5t-0.5 -3.5q-1 -6 -3 -11.5t-5 -10.5t-7 -7.5t-9 -2.5h-5.5t-4.5 1q-3 0 -5.5 0.5t-4.5 1.5h-1.5h-0.5q-1 0 -1.5 0.5t-1.5 0.5h-1.5t-0.5 1q-1 0 -1.5 0.5t-1.5 0.5q-4 1 -7.5 1.5t-7.5 1.5t-7.5 1.5t-7.5 0.5q-10 0 -19.5 -3.5t-17.5 -10.5t-14 -15t-9 -17 q-2 -5 -3.5 -11t-2.5 -13q0 -4 -0.5 -7.5t-0.5 -6.5q-1 -4 -1 -7.5v-7.5q-1 -7 -1 -13.5v-12.5v-11.5v-10.5v-13.5v-12.5v-13.5v-12.5q-1 -7 -1 -14v-13v-13.5v-12.5q0 -18 2 -31t6 -21q4 -9 16 -13t32 -4l10 2v-33h-13.5h-12.5q-7 0 -13.5 0.5t-13.5 0.5q-13 1 -26 1.5 t-26 0.5t-25.5 -0.5t-24.5 -1.5q-6 0 -12 -0.5t-12 -0.5h-13h-12v33q22 -2 36 1t20 10t9 21t3 35v7.5v7.5v8v8v4v4q-1 1 -1 3v4v8v8v14v14v14t1 14v14v14v14v14q0 20 -2 34t-5 24q-4 9 -16 15t-32 7v2v0z"/>
<glyph glyph-name="t" horiz-adv-x="336" unicode="s" d="M275 406l9 -85l-25 -4v-1v0h-1v0v0.5v1.5q-4 14 -11 26t-16 23t-21.5 17t-27.5 6q-13 0 -24 -4t-20 -12q-9 -7 -13.5 -17.5t-4.5 -23.5q0 -15 5.5 -27.5t15.5 -22.5q11 -10 23 -19.5t27 -18.5q2 -1 4 -2.5t4 -3.5q1 -1 2 -1.5t3 -0.5q1 -1 2 -1.5t2 -1.5q17 -10 32 -22 t28 -26q14 -13 21 -30.5t7 -40.5q0 -28 -10.5 -50.5t-30.5 -39.5q-20 -16 -44 -24t-51 -8h-4h-4q-2 1 -4 1h-4h-4h-3q-2 1 -4 1h-4q-10 1 -20 2.5t-19 2.5q-10 2 -19 5t-18 7l-13 104l27 5q4 -20 10.5 -36.5t15.5 -31.5t24.5 -22.5t37.5 -7.5q15 0 28 4.5t24 13.5t16.5 21 t5.5 28q0 12 -4.5 22.5t-13.5 19.5q-4 5 -9 9t-10 9q-6 4 -11.5 8.5t-11.5 8.5q-4 2 -7.5 4t-6.5 4q-1 1 -3 2t-3 3q-2 1 -3.5 2t-3.5 2q-16 11 -31 23.5t-29 25.5q-13 14 -20 32.5t-7 40.5q0 28 9 49.5t28 36.5t41.5 23t49.5 8h3.5h2.5q2 -1 3.5 -1h2.5h3h3h2.5h2.5 q5 -1 9 -1.5t9 -1.5q4 -1 8.5 -2t8.5 -2q5 -1 9 -2.5t8 -2.5q5 -2 9 -3t8 -3v2v0z"/>
<glyph glyph-name="u" horiz-adv-x="303" unicode="t" d="M140 522h27l-2 -127h128l-14 -40h-118v-121v-13t1 -12v-12v-12v-23.5v-22.5v-2.5v-2.5v-3v-3v-2.5v-2.5q0 -2 0.5 -3t0.5 -3q1 -16 4.5 -30t10.5 -28q6 -13 19.5 -19.5t32.5 -6.5q7 0 13.5 1t13.5 2q6 2 12.5 3.5t13.5 4.5l10 -24q-10 -6 -21.5 -10.5t-22.5 -7.5 q-11 -2 -22.5 -4.5t-22.5 -3.5h-2.5t-2.5 -1h-3h-2h-4.5h-4.5q-25 0 -43 5.5t-30 17.5t-17.5 30.5t-5.5 42.5v6.5v7.5v7t1 8v6.5v7.5v6.5v7.5v209h-55l7 28q17 11 32.5 25.5t28.5 32.5q14 18 23 37.5t14 41.5v2v0z"/>
<glyph glyph-name="v" horiz-adv-x="522" unicode="u" d="M484 39v-29q-16 -3 -32 -5.5t-32 -4.5q-16 -1 -31.5 -5t-30.5 -8l-12 13q1 3 1.5 6.5t1.5 7.5q0 4 0.5 8t1.5 8q2 8 2.5 16t0.5 16q-15 -15 -32 -28t-37 -24q-19 -10 -40 -15.5t-43 -5.5q-30 0 -51 9.5t-33 29.5t-18.5 42.5t-8.5 47.5q0 2 -0.5 3.5t-0.5 3.5v3v3v3.5v3.5 v3v3v4.5v5.5v4.5v4.5v10t1 10v9.5v8.5v10v10v12v12v12t1 12v12v12v12v12q0 19 -3.5 31.5t-9.5 19.5q-6 6 -18 9.5t-30 3.5v34q2 -2 3.5 -2.5t2.5 -0.5h1.5h1.5h0.5h1.5h31.5t30.5 1q15 0 30.5 2t31.5 5q-1 -28 -2.5 -56.5t-1.5 -57.5q-1 -28 -1 -56.5v-57.5v-1.5v-0.5v-1.5 v-1.5v-2.5v-2.5v-4t1 -4v-4v-4v-8t1 -8q1 -19 5.5 -36.5t11.5 -33.5q8 -16 23.5 -24t39.5 -8q16 0 31 3t28 10q14 6 26.5 14t25.5 18v160v6v8v4v5q0 2 0.5 4t0.5 4v8v8v4v5v4v4q0 18 -3 30.5t-9 19.5t-18 10.5t-31 3.5v34q1 -2 2 -2.5t2 -0.5h2h2h2h2h1h2h4h4q1 0 2 -0.5 t2 -0.5h1h2h4h4h12h13q6 0 12 0.5t12 1.5t12 1.5t13 1.5l12 2l12 2l-2 -18q-1 -17 -1.5 -33t-0.5 -32v-16v-15q-1 -8 -1 -15.5v-15.5v-31.5v-31.5v-31.5v-30.5v-4v-4v-2v-1v-2v-2v-25.5t1 -23.5t2.5 -18.5t2.5 -10.5q2 -5 6 -8.5t8 -5.5q5 -1 10 -2.5t10 -2.5h2h2q1 -1 2 -1 h2h4h4v0h1v0v0h0.5h1.5v2v0z"/>
<glyph glyph-name="w" horiz-adv-x="438" unicode="v" d="M-3 385v34q6 -2 12 -3t12 -1q6 -1 12 -1.5t12 -0.5q5 -1 11 -1h12h12h12h13.5h13.5q6 0 12.5 0.5t13.5 0.5t13.5 0.5t13.5 0.5q6 1 12.5 1.5t13.5 1.5v-32h-14q-1 -2 -1.5 -2h-0.5v0v0h-1v0q-7 -1 -13.5 -2.5t-12.5 -4.5t-9 -7.5t-3 -11.5v-4v-4v-2t1 -1q0 -1 0.5 -2 t0.5 -2v-3t1 -3q0 -2 0.5 -3.5t1.5 -3.5q2 -3 3.5 -6t2.5 -6t2 -5.5t2 -4.5t1.5 -4.5t1.5 -4.5l75 -185l58 139q2 2 3.5 6t3.5 8q2 5 4 9.5t4 9.5l2 4l2 4t1.5 4.5t1.5 5.5q2 3 3 6t2 7l2 6l2 6q2 6 3 12t1 12q0 8 -3 13.5t-8 8.5q-6 3 -12 5t-12 3h-2.5t-2.5 1h-2h-2h-4h-4 v36q11 -3 22 -4.5t22 -1.5q11 -1 22 -1h22h10h10h4.5t5.5 1h4.5h5.5q5 0 10 0.5t10 1.5q5 0 10 0.5t10 1.5v-32q-7 -2 -14 -3.5t-14 -3.5q-7 -1 -12.5 -5t-10.5 -9q-6 -7 -12 -15t-11 -17t-9.5 -18.5t-9.5 -19.5q-3 -7 -6 -13.5t-5 -12.5q-3 -7 -5.5 -13t-4.5 -11l-60 -140 q-6 -16 -12 -30l-12 -28t-11 -28t-10 -27h-19q-1 2 -1.5 3.5t-0.5 3.5q-1 1 -1.5 2.5t-1.5 2.5q-1 2 -1.5 3.5t-0.5 2.5q-1 2 -1.5 3.5t-1.5 2.5v1.5v1.5q-1 0 -1 0.5v1.5q-1 1 -1.5 2t-0.5 2q-1 5 -3 9t-3 9q-2 4 -3.5 8.5t-3.5 8.5q-1 5 -3 9t-4 9q-1 4 -3 8.5t-4 8.5 l-65 162q-2 3 -4.5 8.5t-5.5 12.5q-1 4 -3 7.5t-3 7.5q-2 4 -3.5 7.5t-3.5 7.5l-4 8l-4 8t-3.5 7.5t-3.5 7.5q-3 5 -6 9t-5 8q-3 4 -5.5 7t-4.5 6q-4 3 -8.5 5.5t-9.5 3.5q-2 1 -4.5 1.5t-4.5 1.5q-2 0 -4.5 0.5t-4.5 1.5h-2.5h-2.5h-1.5t-0.5 1v0h-1l-2 2v0z"/>
<glyph glyph-name="x" horiz-adv-x="616" unicode="w" d="M-3 385v33q10 -2 20 -3.5t20 -2.5q5 0 10 -0.5t11 -0.5h10h10h22.5t23.5 1q6 0 12 0.5t12 1.5q5 0 11 0.5t12 1.5v-31q-1 -1 -2 -1.5l-1 -0.5q-1 -1 -2 -1h-2h-2h-2q-1 -1 -2 -1h-2q-5 -1 -9.5 -3t-9.5 -4q-4 -3 -6.5 -7t-2.5 -9v-4v-4v-2t1 -1q0 -1 0.5 -2t1.5 -2 q0 -3 1 -5.5t2 -4.5q1 -3 2 -5l2 -4q0 -1 0.5 -2.5t1.5 -3.5q0 -1 0.5 -1.5t1.5 -0.5q0 -1 0.5 -1.5t0.5 -1.5l71 -192l78 182q-1 1 -2 3.5t-2 5.5l-1.5 3t-0.5 3q-1 1 -1.5 2.5t-0.5 2.5q-5 12 -11 22.5t-13 19.5q-7 8 -18 12.5t-28 5.5v35q6 -2 12 -3t12 -1q3 0 6 -0.5 t7 -0.5q3 -1 6 -1h6h6h6q3 -1 6 -1h6h6h7h6h6h12.5h13.5h6t7 1h6.5h6.5q6 0 12 0.5t13 1.5q6 0 12.5 0.5t13.5 1.5v-31q-1 -2 -2.5 -2.5t-2.5 -0.5q-2 -1 -3 -1h-3h-2.5h-2.5q-2 -1 -3 -1h-3h-1.5h-0.5h-1.5h-0.5q-7 0 -13 -1t-12 -3t-9 -7t-3 -13q0 -4 0.5 -8.5t1.5 -8.5 q2 -4 3.5 -8t3.5 -8l80 -202l56 157q1 1 2 3t2 5q1 2 2 5l2 6q2 7 4.5 14.5t5.5 14.5q2 8 3.5 15.5t1.5 14.5q0 8 -2 13t-6 6q-4 2 -8.5 3t-9.5 2h-5.5h-4.5t-4 1l-4 2v35q10 -2 20 -3l20 -2t19.5 -1h19.5h4h5h4h4h4t5 1h4h4h4t4 1h4h4q5 0 9.5 0.5t8.5 1.5v-31 q-13 -2 -23.5 -8t-18.5 -16q-7 -10 -13 -21t-11 -22q-1 -4 -2.5 -8t-3.5 -8q-1 -4 -2.5 -7.5t-3.5 -6.5l-69 -174q-6 -16 -11.5 -31t-10.5 -30t-10 -29.5t-10 -27.5h-19q-2 5 -4.5 11t-4.5 13q-3 6 -5.5 12.5t-4.5 13.5q-3 7 -5.5 13.5t-4.5 13.5q-3 6 -5.5 12.5t-5.5 13.5 l-64 157l-67 -155q-2 -7 -4.5 -12.5t-4.5 -10.5t-4 -10.5t-4 -10.5q-4 -8 -7.5 -16t-6.5 -16q-3 -7 -6 -14.5t-6 -14.5h-18q-3 7 -6 15.5t-6 17.5q-1 5 -2.5 9t-3.5 9q-1 4 -2.5 8.5t-3.5 8.5q-1 2 -1.5 3.5t-1.5 2.5q-1 2 -1.5 4t-0.5 4q-3 7 -5.5 14t-4.5 14q-3 7 -5.5 14 t-4.5 14l-51 137q-1 1 -2 3t-2 5l-2 6l-2 6v0v0q-1 0 -1 0.5v0.5v0.5v1.5q-6 15 -12 29t-14 27q-7 14 -20 22t-29 11l-2 2v0z"/>
<glyph glyph-name="y" horiz-adv-x="449" unicode="x" d="M20 386v32q11 -2 22.5 -3.5t23.5 -2.5q11 -1 22.5 -1h22.5h12h12q5 0 11 0.5t12 0.5t12 0.5t12 1.5q5 0 11 0.5t12 1.5v-30h-9q-1 -2 -1.5 -2h-0.5v0v0h-1.5h-0.5q-1 -1 -1.5 -1h-0.5h-2h-2q-3 -1 -6 -1.5t-5 -2.5q-3 -1 -4 -3t-1 -5q0 -5 1.5 -11t5.5 -14q2 -4 4 -7.5 t4 -6.5q3 -4 5 -7.5t5 -7.5q1 -1 1.5 -2t1.5 -2q0 -1 0.5 -2t1.5 -2l3.5 -3.5t2.5 -3.5q2 -3 4 -6.5t5 -6.5q2 -3 4 -5.5t4 -5.5q5 -6 8 -10.5t6 -7.5q2 3 4.5 6t5.5 7q1 2 2 3.5t3 3.5q1 1 2.5 3t2.5 3q3 5 6 9.5t6 8.5q2 5 5 9.5t6 8.5q6 9 10 18.5t5 19.5q0 7 -2 11.5 t-7 6.5q-4 2 -9.5 3.5t-11.5 1.5h-1.5t-0.5 1h-1.5h-0.5h-2h-2v34q5 -2 10.5 -3t10.5 -1q5 -1 10.5 -1.5t11.5 -0.5h5.5h5.5q2 -1 4.5 -1h5.5h10.5h11.5h19.5t18.5 1t18.5 2t19.5 2v-30q-20 -2 -37.5 -9.5t-32.5 -22.5t-28.5 -31t-25.5 -33q-5 -8 -10 -15.5t-10 -15.5 q-4 -7 -8.5 -14t-9.5 -13l80 -117q2 -5 4 -8.5t5 -7.5q2 -4 4.5 -8t5.5 -7q4 -6 8.5 -12t8.5 -12q5 -6 9.5 -10.5t8.5 -7.5q3 -3 7 -5t8 -3l8 -2t8 -1v0v0v0h1v0v0h2h2q1 -1 2 -1h2q2 -1 4 -1.5t4 -0.5v-28h-22t-22 1q-5 0 -10.5 0.5t-10.5 0.5q-6 1 -11.5 1h-10.5h-10h-9 q-5 -1 -9.5 -1h-9.5q-10 -1 -19.5 -1.5t-18.5 -0.5h-3h-3h-3.5h-3.5h-6h-6v30h8q1 -2 2 -2h2h1.5h1.5h0.5h1.5q5 0 8.5 1.5t7.5 2.5q4 2 6 5.5t2 8.5v0.5v1.5q-1 0 -1 0.5v1.5v2v2q-1 3 -2.5 6t-3.5 6l-1.5 3l-1.5 3q-1 1 -1.5 2.5t-1.5 2.5l-2 2l-2 2q0 1 -0.5 1.5 t-0.5 1.5q-1 0 -1.5 0.5t-0.5 1.5l-60 89q-3 -5 -7 -11t-9 -13t-10.5 -14t-10.5 -15q-1 -1 -1.5 -2t-0.5 -2q-1 -1 -1.5 -2t-1.5 -2l-1.5 -1.5t-0.5 -1.5l-1.5 -1.5l-1.5 -1.5q-6 -10 -11.5 -19t-10.5 -17q-4 -9 -6.5 -15.5t-2.5 -11.5v1q0 -5 1.5 -8t4.5 -5q3 -1 7 -2.5 t8 -1.5h0.5h1.5q0 -1 0.5 -1h1.5h1.5h1.5h0.5h1.5h0.5h1.5h0.5h1.5l6 2v-30h-20.5t-21.5 1q-10 1 -20.5 1.5t-21.5 0.5h-5.5h-4.5q-3 -1 -5.5 -1h-4.5h-10h-10q-5 -1 -10 -1.5t-10 -0.5h-10h-10v30q15 0 27 3t22 8q9 5 18 12.5t17 16.5q2 3 4.5 6t5.5 7q2 3 5 6.5t6 7.5 l78 107l-85 124q-4 4 -7 7.5t-5 7.5q-3 4 -5.5 7.5t-4.5 6.5q-6 7 -12.5 12t-13.5 8t-16.5 4.5t-23.5 2.5v2v0z"/>
<glyph glyph-name="z" horiz-adv-x="432" unicode="y" d="M-3 386v32q3 -2 6 -2.5t6 -0.5q2 -1 5 -1h6t6 -0.5t6 -0.5q2 -1 5 -1h6h5.5h5.5q2 -1 5 -1h6h12h12h12h13q6 0 12 0.5t12 0.5q12 1 24.5 2t25.5 2v-30q-2 -2 -4.5 -2h-5.5h-2.5h-2.5q-2 -1 -3 -1h-2q-6 -1 -11 -3l-10 -4q-4 -3 -6.5 -7t-2.5 -10v-4v-4v-2t1 -1 q0 -1 0.5 -2t0.5 -2q0 -4 1.5 -8t2.5 -8q2 -4 3.5 -8t2.5 -7v-2t1 -1q0 -1 0.5 -2t0.5 -2q1 -1 1.5 -2.5t1.5 -3.5l78 -202l54 142q2 2 3.5 5t2.5 7q2 4 3.5 8t2.5 8q5 10 8.5 20.5t7.5 21.5t6 22t2 22q0 8 -3 14t-9 9t-12.5 4.5t-13.5 2.5h-2h-1h-2h-2h-2.5h-3.5v34l3 -1.5 t3 -0.5q1 -1 2.5 -1h2.5h3h3q1 -1 2.5 -1h2.5h3h3q1 -1 2.5 -1h2.5h6h6q5 -1 10.5 -1.5t11.5 -0.5h10.5h11.5h21.5t20.5 1q11 1 21.5 2t21.5 2v-30q-25 -5 -42.5 -13.5t-26.5 -22.5q-10 -14 -18 -30.5t-14 -35.5l-2 -6t-2 -5l-2 -6l-2 -6l-2 -6t-2 -5q-2 -3 -3 -6l-2 -6 l-90 -223q-4 -10 -8.5 -20.5t-9.5 -23.5q-5 -14 -11 -27.5t-12 -27.5q-10 -23 -23 -44.5t-28 -40.5q-15 -20 -32 -29.5t-37 -9.5q-8 0 -15.5 3t-13.5 9q-7 6 -10 13t-3 15q0 10 3.5 17t10.5 12q7 4 14.5 7t15.5 5q1 0 1.5 0.5t1.5 0.5q0 1 0.5 1h1.5h3.5h2.5q18 3 32 10.5 t24 21.5q10 13 18.5 28t15.5 31q2 4 3.5 8t2.5 8l2 4l2 4q0 2 1 4l2 4v1.5t1 0.5v0v0v0v0l0.5 1t1.5 2l-93 243l-18 42q-3 5 -5 11l-4 12t-4 11.5t-4 10.5q-4 11 -10 20t-13 15t-18.5 10t-27.5 6l-2 2v0z"/>
<glyph glyph-name="braceleft" horiz-adv-x="415" unicode="z" d="M62 433h19q5 -4 10 -6.5l9 -4.5t8 -3.5t8 -2.5q5 -1 10 -2.5t11 -1.5q5 -1 12 -1h14l218 2l5 -11l-265 -365q10 -2 20 -3t20 -1h20.5h19.5q29 0 52 1.5t40 5.5t32.5 16t30.5 33l4 6l4 6t4 7l4 8l26 -5l-35 -111h-12.5h-12.5h-13h-12h-12h-12h-13h-12l-63 2 q-11 -2 -22.5 -2h-22.5h-22h-22h-11.5h-10.5h-11.5h-11.5h-22h-22l-7 11q5 4 9.5 10t8.5 12q2 3 4.5 6t5.5 7q2 3 4.5 6.5t4.5 6.5t4.5 6t4.5 7q2 3 4.5 6t4.5 6t4.5 6t5.5 7q2 3 4.5 6t4.5 6l193 271h-104q-22 -2 -39.5 -5t-30.5 -9t-23 -20.5t-17 -37.5l-29 6l22 119v0v0z "/>
<glyph glyph-name="bar" horiz-adv-x="501" unicode="{" d="M104 311v15q20 -1 37.5 3t32.5 11q14 8 21.5 23.5t7.5 39.5v10v10v4.5v5.5q-1 2 -1 4.5v5.5v4.5v5.5v4.5v5.5v7.5v7.5q-1 4 -1 7.5v7.5v15.5v14.5q0 46 4.5 82t14.5 61q10 26 40.5 39.5t82.5 14.5h6.5h7.5h7.5t7.5 1h6.5h7.5h7.5h7.5v-20q-31 -2 -55 -7.5t-42 -14.5 q-18 -10 -27.5 -32.5t-10.5 -57.5v-171q-1 -20 -5.5 -36.5t-13.5 -29.5t-23 -21t-34 -13v-1q21 -5 35.5 -15t22.5 -27q8 -16 13 -33.5t6 -35.5v-2v-1v-2v-2v-4v-4v-10v-9q-1 -5 -1 -9.5v-9.5v-19v-18v-10v-9q-1 -5 -1 -9.5v-9.5v-19.5v-18.5q0 -38 7.5 -64t22.5 -39 q15 -14 42 -21t64 -7v-22h-15q-40 1 -74 6t-60 14t-39 38.5t-13 78.5v33.5v32.5q0 17 0.5 33.5t1.5 32.5v16.5v16.5v8t1 9v8v8q0 26 -6.5 43.5t-19.5 25.5t-31.5 12.5t-41.5 5.5v2v0z"/>
<glyph glyph-name="braceright" horiz-adv-x="501" unicode="|" d="M223 667h54v-323v-511h-54v322v512v0v0z"/>
<glyph glyph-name="asciitilde" horiz-adv-x="501" unicode="}" d="M396 326v-15q-22 -2 -39.5 -6.5t-31.5 -12.5q-14 -7 -21 -23.5t-7 -41.5v-25.5v-25.5t0.5 -25.5t1.5 -24.5v-26v-25v-12.5t1 -12.5v-13.5v-12.5q0 -37 -8.5 -63t-25.5 -41q-16 -15 -43 -23t-64 -9h-7.5h-7.5h-7.5t-7.5 -1h-7.5h-7.5h-7.5h-7.5v22q32 0 56 5t42 16 q17 10 26 32.5t10 55.5v22.5v22.5v22.5t1 23.5v22.5v22.5v22.5v23.5q0 21 4 39.5t11 34.5q8 16 23 26.5t38 14.5v5q-19 3 -33.5 11t-23.5 21t-14 29t-5 35v124q0 43 -5.5 73.5t-16.5 48.5q-10 17 -38.5 26.5t-74.5 10.5v24q1 -2 2 -2h2h1.5h1.5h0.5h1.5q1 -1 2 -1h2h1.5h1.5 h0.5h1.5q47 0 81 -5t56 -16q23 -10 34 -45t11 -94v-10v-9q-1 -5 -1 -10v-10v-19.5v-18.5v-10v-10q-1 -5 -1 -10v-10v-19.5v-18.5q0 -25 7 -40.5t21 -23.5q14 -7 31.5 -11.5t39.5 -5.5v2v0z"/>
<glyph glyph-name="bullet" horiz-adv-x="501" unicode="~" d="M457 400l16 -8q-11 -20 -26 -37t-34 -32t-40 -22t-44 -7q-13 0 -25 1.5t-24 4.5t-23.5 7t-22.5 8l-12 4t-11 3l-12 4t-12 3q-12 3 -24 5t-24 2q-13 0 -25 -3.5t-21 -10.5q-10 -7 -19 -14.5t-17 -15.5l-1.5 -1.5l-0.5 -0.5l-1.5 -1.5l-1.5 -1.5l-2 -2l-2 -2l-1.5 -1.5 l-1.5 -1.5l-1.5 -1.5l-0.5 -0.5l-16 11v-1v0l0.5 0.5l1.5 1.5q12 17 27 33t33 31t38.5 22.5t43.5 7.5q12 0 23.5 -1.5t22.5 -4.5t22.5 -6.5t22.5 -7.5t22 -7.5t22 -6.5t23 -4.5t24 -1.5q16 0 30.5 4t27.5 11q14 8 25 17.5t21 21.5v2v0z"/>
<glyph glyph-name="exclamdown" unicode="¡"/>
<glyph glyph-name="cent" unicode="¢"/>
<glyph glyph-name="sterling" unicode="£"/>
<glyph glyph-name="currency" unicode="¤"/>
<glyph glyph-name="yen" unicode="¥"/>
<glyph glyph-name="brokenbar" unicode="¦"/>
<glyph glyph-name="section" unicode="§"/>
<glyph glyph-name="dieresis" unicode="¨"/>
<glyph glyph-name="copyright" unicode="©"/>
<glyph glyph-name="ordfeminine" unicode="ª"/>
<glyph glyph-name="guillemotleft" unicode="«"/>
<glyph glyph-name="logicalnot" unicode="¬"/>
<glyph glyph-name="uni00AD" unicode="­"/>
<glyph glyph-name="registered" unicode="®"/>
<glyph glyph-name="macron" unicode="¯"/>
<glyph glyph-name="degree" unicode="°"/>
<glyph glyph-name="plusminus" unicode="±"/>
<glyph glyph-name="uni00B2" unicode="²"/>
<glyph glyph-name="uni00B3" unicode="³"/>
<glyph glyph-name="acute" unicode="´"/>
<glyph glyph-name="mu" unicode="µ"/>
<glyph glyph-name="paragraph" unicode="¶"/>
<glyph glyph-name="periodcentered" unicode="·"/>
<glyph glyph-name="cedilla" unicode="¸"/>
<glyph glyph-name="uni00B9" unicode="¹"/>
<glyph glyph-name="ordmasculine" unicode="º"/>
<glyph glyph-name="guillemotright" unicode="»"/>
<glyph glyph-name="onequarter" unicode="¼"/>
<glyph glyph-name="onehalf" unicode="½"/>
<glyph glyph-name="threequarters" unicode="¾"/>
<glyph glyph-name="questiondown" unicode="¿"/>
<glyph glyph-name="Agrave" unicode="À"/>
<glyph glyph-name="Aacute" unicode="Á"/>
<glyph glyph-name="Acircumflex" unicode="Â"/>
<glyph glyph-name="Atilde" unicode="Ã"/>
<glyph glyph-name="Adieresis" unicode="Ä"/>
<glyph glyph-name="Aring" unicode="Å"/>
<glyph glyph-name="AE" unicode="Æ"/>
<glyph glyph-name="Ccedilla" unicode="Ç"/>
<glyph glyph-name="Egrave" unicode="È"/>
<glyph glyph-name="Eacute" unicode="É"/>
<glyph glyph-name="Ecircumflex" unicode="Ê"/>
<glyph glyph-name="Edieresis" unicode="Ë"/>
<glyph glyph-name="Igrave" unicode="Ì"/>
<glyph glyph-name="Iacute" unicode="Í"/>
<glyph glyph-name="Icircumflex" unicode="Î"/>
<glyph glyph-name="Idieresis" unicode="Ï"/>
<glyph glyph-name="Eth" unicode="Ð"/>
<glyph glyph-name="Ntilde" unicode="Ñ"/>
<glyph glyph-name="Ograve" unicode="Ò"/>
<glyph glyph-name="Oacute" unicode="Ó"/>
<glyph glyph-name="Ocircumflex" unicode="Ô"/>
<glyph glyph-name="Otilde" unicode="Õ"/>
<glyph glyph-name="Odieresis" unicode="Ö"/>
<glyph glyph-name="multiply" unicode="×"/>
<glyph glyph-name="Oslash" unicode="Ø"/>
<glyph glyph-name="Ugrave" unicode="Ù"/>
<glyph glyph-name="Uacute" unicode="Ú"/>
<glyph glyph-name="Ucircumflex" unicode="Û"/>
<glyph glyph-name="Udieresis" unicode="Ü"/>
<glyph glyph-name="Yacute" unicode="Ý"/>
<glyph glyph-name="Thorn" unicode="Þ"/>
<glyph glyph-name="germandbls" unicode="ß"/>
<glyph glyph-name="agrave" unicode="à"/>
<glyph glyph-name="aacute" unicode="á"/>
<glyph glyph-name="acircumflex" unicode="â"/>
<glyph glyph-name="atilde" unicode="ã"/>
<glyph glyph-name="adieresis" unicode="ä"/>
<glyph glyph-name="aring" unicode="å"/>
<glyph glyph-name="ae" unicode="æ"/>
<glyph glyph-name="ccedilla" unicode="ç"/>
<glyph glyph-name="egrave" unicode="è"/>
<glyph glyph-name="eacute" unicode="é"/>
<glyph glyph-name="ecircumflex" unicode="ê"/>
<glyph glyph-name="edieresis" unicode="ë"/>
<glyph glyph-name="igrave" unicode="ì"/>
<glyph glyph-name="iacute" unicode="í"/>
<glyph glyph-name="icircumflex" unicode="î"/>
<glyph glyph-name="idieresis" unicode="ï"/>
<glyph glyph-name="eth" unicode="ð"/>
<glyph glyph-name="ntilde" unicode="ñ"/>
<glyph glyph-name="ograve" unicode="ò"/>
<glyph glyph-name="oacute" unicode="ó"/>
<glyph glyph-name="ocircumflex" unicode="ô"/>
<glyph glyph-name="otilde" unicode="õ"/>
<glyph glyph-name="odieresis" unicode="ö"/>
<glyph glyph-name="divide" unicode="÷"/>
<glyph glyph-name="oslash" unicode="ø"/>
<glyph glyph-name="ugrave" unicode="ù"/>
<glyph glyph-name="uacute" unicode="ú"/>
<glyph glyph-name="ucircumflex" unicode="û"/>
<glyph glyph-name="udieresis" unicode="ü"/>
<glyph glyph-name="yacute" unicode="ý"/>
<glyph glyph-name="thorn" unicode="þ"/>
</font>
</defs>
</svg>
